<svg width="92" height="61" viewBox="0 0 92 61" fill="none" xmlns="http://www.w3.org/2000/svg">
<rect x="-0.5" y="0.5" width="47.7059" height="25.1429" rx="2.5" transform="matrix(-1 0 0 1 87.7529 9.80371)" stroke="#333333"/>
<rect width="31.3882" height="51.1964" rx="3" transform="matrix(-1 0 0 1 41.1294 9.80371)" fill="#333333"/>
<path d="M88.2529 0.5H49.2059V10.0714C49.2059 11.4521 50.3252 12.5714 51.7059 12.5714H85.7529C87.1336 12.5714 88.2529 11.4521 88.2529 10.0714V0.5Z" fill="white" stroke="#333333"/>
<path d="M49.2881 0.5H10.241V10.0714C10.241 11.4521 11.3603 12.5714 12.741 12.5714H46.7881C48.1688 12.5714 49.2881 11.4521 49.2881 10.0714V0.5Z" fill="white" stroke="#333333"/>
<rect x="-0.5" y="0.5" width="3.32941" height="32.7679" transform="matrix(-1 0 0 1 91 0)" stroke="#333333"/>
<rect x="-0.5" y="0.5" width="9.82353" height="32.7679" transform="matrix(-1 0 0 1 9.82373 0)" stroke="#333333"/>
</svg>
