<svg width="44" height="66" viewBox="0 0 44 66" fill="none" xmlns="http://www.w3.org/2000/svg">
<path d="M20.6109 47.5843V0H4.02619C1.80264 0 0 1.81025 0 4.04365V47.5844H20.6109V47.5843ZM13.5782 26.8882H15.0688C15.8358 26.8882 16.4578 27.5128 16.4578 28.2834C16.4578 29.0538 15.836 29.6784 15.0688 29.6784H13.5782C12.8111 29.6784 12.189 29.0539 12.189 28.2834C12.189 27.5128 12.811 26.8882 13.5782 26.8882Z" fill="#333333"/>
<path d="M0 50.3745V58.5739C0 60.8071 1.80264 62.6175 4.02619 62.6175H4.63681V64.6048C4.63681 65.3753 5.25876 65.9998 6.02594 65.9998C6.793 65.9998 7.41507 65.3752 7.41507 64.6048V62.6175H36.5849V64.6048C36.5849 65.3753 37.2069 65.9998 37.9741 65.9998C38.7411 65.9998 39.3632 65.3753 39.3632 64.6048V62.6175H39.9738C42.1974 62.6175 44 60.807 44 58.5737V50.3745H0ZM24.1529 57.874H19.8469C19.0799 57.874 18.4578 57.2493 18.4578 56.4789C18.4578 55.7085 19.0797 55.0837 19.8469 55.0837H24.1529C24.92 55.0837 25.5421 55.7084 25.5421 56.4789C25.5421 57.2493 24.9201 57.874 24.1529 57.874Z" fill="#333333"/>
<path d="M23.3892 47.5843H44V4.04352C44 1.81025 42.1974 0 39.9738 0H23.3892V47.5843ZM28.9313 26.8882H30.4219C31.1889 26.8882 31.811 27.5128 31.811 28.2834C31.811 29.0539 31.189 29.6784 30.4219 29.6784H28.9313C28.1642 29.6784 27.5421 29.0539 27.5421 28.2834C27.5421 27.5128 28.1642 26.8882 28.9313 26.8882Z" fill="#333333"/>
<rect x="15" y="53" width="12" height="5" fill="#333333"/>
</svg>
