<svg width="62" height="33" viewBox="0 0 62 33" fill="none" xmlns="http://www.w3.org/2000/svg">
<path d="M8.79623 0L4.29395 11.0001H21.1775L16.6752 0H16.1124H8.79623Z" fill="#333333"/>
<rect width="0.866271" height="19.4885" transform="matrix(0.936746 0.35001 -0.214914 0.976633 4.18848 13.2222)" fill="#333333"/>
<rect width="0.866271" height="19.4885" transform="matrix(0.936746 -0.35001 0.214914 0.976633 21.1777 13.5254)" fill="#333333"/>
<rect width="0.849864" height="19.7212" transform="matrix(0.983642 -0.180136 0.107233 0.994234 17.0308 13.3447)" fill="#333333"/>
<rect width="0.849864" height="19.7212" transform="matrix(0.983642 0.180136 -0.107233 0.994234 9.01514 13.1914)" fill="#333333"/>
<rect x="12.7363" y="13.1997" width="0.844177" height="19.8001" fill="#333333"/>
<path d="M44.618 0L40.1157 11.0001H56.9993L52.497 0H51.9342H44.618Z" fill="#333333"/>
<rect width="0.866271" height="19.4885" transform="matrix(0.936746 0.35001 -0.214914 0.976633 40.0103 13.2222)" fill="#333333"/>
<rect width="0.866271" height="19.4885" transform="matrix(0.936746 -0.35001 0.214914 0.976633 56.9995 13.5254)" fill="#333333"/>
<rect width="0.849864" height="19.7212" transform="matrix(0.983642 -0.180136 0.107233 0.994234 52.8525 13.3447)" fill="#333333"/>
<rect width="0.849864" height="19.7212" transform="matrix(0.983642 0.180136 -0.107233 0.994234 44.8369 13.1914)" fill="#333333"/>
<rect x="48.5581" y="13.1997" width="0.844177" height="19.8001" fill="#333333"/>
</svg>
