<svg width="59" height="66" viewBox="0 0 59 66" fill="none" xmlns="http://www.w3.org/2000/svg">
<path d="M19 47.9999V0H3.71152C1.66175 0 0 1.82606 0 4.07897V48H19V47.9999ZM12.517 27.123H13.891C14.5981 27.123 15.1715 27.7531 15.1715 28.5304C15.1715 29.3075 14.5983 29.9377 13.891 29.9377H12.517C11.8099 29.9377 11.2364 29.3077 11.2364 28.5304C11.2364 27.7531 11.8097 27.123 12.517 27.123Z" fill="#333333"/>
<path d="M0 50V58.396C0 60.6828 2.41717 62.5366 5.39875 62.5366H6.21754V64.5715C6.21754 65.3605 7.05151 66 8.08024 66C9.10879 66 9.94294 65.3604 9.94294 64.5715V62.5366H49.0571V64.5715C49.0571 65.3605 49.891 66 50.9198 66C51.9483 66 52.7825 65.3605 52.7825 64.5715V62.5366H53.6012C56.5828 62.5366 59 60.6827 59 58.3958V50H0ZM32.3869 57.6793H26.6129C25.5844 57.6793 24.7502 57.0396 24.7502 56.2508C24.7502 55.4619 25.5842 54.8221 26.6129 54.8221H32.3869C33.4155 54.8221 34.2496 55.4617 34.2496 56.2508C34.2496 57.0396 33.4156 57.6793 32.3869 57.6793Z" fill="#333333"/>
<path d="M41 48H59V4.07884C59 1.82606 57.4257 0 55.4838 0H41V48ZM45.8401 27.1231H47.1418C47.8117 27.1231 48.355 27.7532 48.355 28.5305C48.355 29.3078 47.8118 29.9377 47.1418 29.9377H45.8401C45.1702 29.9377 44.6269 29.3078 44.6269 28.5305C44.6269 27.7532 45.1702 27.1231 45.8401 27.1231Z" fill="#333333"/>
<rect x="24" y="53" width="12" height="5" fill="#333333"/>
<rect x="20" width="20" height="48" fill="#333333"/>
</svg>
