<svg width="111" height="35" viewBox="0 0 111 35" fill="none" xmlns="http://www.w3.org/2000/svg">
<path d="M13.2612 34.5268V30.7431L37.8894 6.14844V9.93311L13.2612 34.5268Z" fill="white"/>
<g opacity="0.2">
<path opacity="0.2" d="M13.2612 34.5268V30.7431L37.8894 6.14844V9.93311L13.2612 34.5268Z" fill="#333333"/>
</g>
<g opacity="0.2">
<path opacity="0.2" d="M13.261 30.7432L35.9955 8.04053H31.732L8.99854 30.7432H13.261Z" fill="#333333"/>
</g>
<path d="M35.0483 30.7437H21.7866V34.5274H35.0483V30.7437Z" fill="#FDFDFB"/>
<path d="M24.1543 25.0679H10.8926V28.8516H24.1543V25.0679Z" fill="#FDFDFB"/>
<path d="M24.1544 25.0678H10.8931L35.5211 0.473145H48.7824L24.1544 25.0678Z" fill="white"/>
<g opacity="0.4">
<path opacity="0.4" d="M35.5211 0.473145L10.8931 25.0678H12.7876L37.4156 0.473145H35.5211Z" fill="white"/>
</g>
<path d="M24.1543 28.8515V25.0678L48.7823 0.473145V4.2577L24.1543 28.8515Z" fill="white"/>
<g opacity="0.2">
<path opacity="0.2" d="M26.0488 28.8513L48.7834 6.14844H46.4143L23.6807 28.8513H26.0488Z" fill="#333333"/>
</g>
<g opacity="0.4">
<path opacity="0.4" d="M1.89441 30.7437H0V34.5274H1.89441V30.7437Z" fill="white"/>
</g>
<g opacity="0.4">
<path opacity="0.4" d="M23.6727 30.7437H21.7783V34.5274H23.6727V30.7437Z" fill="white"/>
</g>
<g opacity="0.4">
<path opacity="0.4" d="M12.787 25.0679H10.8926V28.8516H12.787V25.0679Z" fill="white"/>
</g>
<path d="M23.9811 30.1779H10.7197C10.458 30.1779 10.2461 29.9673 10.2461 29.705V25.9212C10.2461 25.6608 10.458 25.4482 10.7197 25.4482H23.9809C24.2427 25.4482 24.4546 25.6608 24.4546 25.9212V29.705C24.4547 29.9673 24.2428 30.1779 23.9811 30.1779ZM11.1934 29.2321H23.5074V26.3942H11.1934V29.2321Z" fill="#333333"/>
<path d="M48.7828 0.945961H35.5215C35.2597 0.945961 35.0479 0.734393 35.0479 0.472981C35.0479 0.211569 35.2597 0 35.5215 0H48.7827C49.0445 0 49.2563 0.211569 49.2563 0.472981C49.2563 0.734393 49.0446 0.945961 48.7828 0.945961Z" fill="#333333"/>
<path d="M23.981 26.3942C23.8598 26.3942 23.7386 26.3479 23.646 26.2556C23.4611 26.0708 23.4611 25.7716 23.646 25.5869L48.2742 0.992124C48.4592 0.807313 48.7588 0.807313 48.9438 0.992124C49.1287 1.17694 49.1288 1.47612 48.9438 1.66093L24.3158 26.2556C24.2232 26.3479 24.102 26.3942 23.981 26.3942Z" fill="#333333"/>
<path d="M23.981 30.1779C23.8598 30.1779 23.7386 30.1318 23.646 30.0393C23.4611 29.8545 23.4611 29.5553 23.646 29.3706L48.2742 4.77679C48.4592 4.59198 48.7588 4.59198 48.9438 4.77679C49.1287 4.9616 49.1288 5.26078 48.9438 5.4456L24.3158 30.0393C24.2232 30.1318 24.102 30.1779 23.981 30.1779Z" fill="#333333"/>
<path d="M10.8932 25.5407C10.772 25.5407 10.6508 25.4944 10.5582 25.4021C10.3732 25.2172 10.3732 24.9181 10.5582 24.7334L35.1864 0.138609C35.3714 -0.0462029 35.6711 -0.0462029 35.856 0.138609C36.041 0.323421 36.041 0.6226 35.856 0.807412L11.228 25.4021C11.1355 25.4944 11.0143 25.5407 10.8932 25.5407Z" fill="#333333"/>
<path d="M48.7826 4.73064C48.5208 4.73064 48.3091 4.51907 48.3091 4.25766V0.472981C48.3091 0.211569 48.5208 0 48.7826 0C49.0444 0 49.2562 0.211569 49.2562 0.472981V4.25766C49.2562 4.51907 49.0444 4.73064 48.7826 4.73064Z" fill="#333333"/>
<path d="M18.3844 35.0002H5.12305C4.86127 35.0002 4.64941 34.7896 4.64941 34.5272V30.7435C4.64941 30.483 4.86127 30.2705 5.12305 30.2705H18.3844C18.6461 30.2705 18.858 30.483 18.858 30.7435V34.5272C18.858 34.7896 18.6461 35.0002 18.3844 35.0002ZM5.59668 34.0542H17.9107V31.2165H5.59668V34.0542Z" fill="#333333"/>
<path d="M18.3844 35C18.2632 35 18.142 34.9537 18.0494 34.8615C17.8644 34.6767 17.8644 34.3774 18.0494 34.1927L22.756 29.4926C22.9411 29.3078 23.2408 29.3078 23.4257 29.4926C23.6107 29.6774 23.6107 29.9767 23.4257 30.1614L18.7192 34.8615C18.6268 34.9539 18.5055 35 18.3844 35Z" fill="#333333"/>
<path d="M5.12302 31.217C5.00197 31.217 4.88069 31.1707 4.78821 31.0784C4.60315 30.8936 4.60315 30.5943 4.78821 30.4096L29.4162 5.81488C29.6013 5.63007 29.901 5.63007 30.086 5.81488C30.2709 5.99969 30.271 6.29887 30.086 6.48368L5.45794 31.0784C5.36546 31.1707 5.2443 31.217 5.12302 31.217Z" fill="#333333"/>
<path d="M32.0459 34.9997H18.7847C18.5229 34.9997 18.311 34.7891 18.311 34.5267V30.743C18.311 30.4825 18.5229 30.27 18.7847 30.27H32.0459C32.3078 30.27 32.5195 30.4825 32.5195 30.743V34.5267C32.5195 34.7891 32.3078 34.9997 32.0459 34.9997ZM19.2583 34.0537H31.5724V31.216H19.2583V34.0537Z" fill="#333333"/>
<path d="M56.8598 5.97573H48.1634C47.9711 5.97573 47.8154 5.78481 47.8154 5.5489C47.8154 5.313 47.9711 5.12207 48.1634 5.12207H56.8598C57.0522 5.12207 57.2077 5.313 57.2077 5.5489C57.2077 5.78481 57.0522 5.97573 56.8598 5.97573Z" fill="#333333"/>
<path d="M32.0459 31.216C31.9248 31.216 31.8035 31.1697 31.7111 31.0775C31.526 30.8927 31.526 30.5934 31.7111 30.4087L56.3391 5.8139C56.5241 5.62909 56.8239 5.62909 57.0088 5.8139C57.1938 5.99871 57.1939 6.29789 57.0088 6.48271L32.3808 31.0775C32.2883 31.1697 32.1672 31.216 32.0459 31.216Z" fill="#333333"/>
<path d="M32.0459 34.9997C31.9248 34.9997 31.8035 34.9534 31.7111 34.8612C31.526 34.6764 31.526 34.3771 31.7111 34.1924L56.3391 9.59857C56.5241 9.41376 56.8239 9.41376 57.0088 9.59857C57.1938 9.78338 57.1939 10.0826 57.0088 10.2674L32.3807 34.8612C32.2883 34.9535 32.1672 34.9997 32.0459 34.9997Z" fill="#333333"/>
<path d="M56.6738 10.4059C56.4119 10.4059 56.2002 10.1944 56.2002 9.93295V6.14827C56.2002 5.88686 56.4119 5.67529 56.6738 5.67529C56.9356 5.67529 57.1473 5.88686 57.1473 6.14827V9.93295C57.1473 10.1944 56.9356 10.4059 56.6738 10.4059Z" fill="#333333"/>
<path d="M21.7866 31.2161C21.6654 31.2161 21.5443 31.1698 21.4518 31.0776C21.2667 30.8928 21.2667 30.5935 21.4518 30.4088L22.3916 29.4702C22.5765 29.2853 22.8762 29.2853 23.0613 29.4702C23.2464 29.655 23.2464 29.9543 23.0613 30.139L22.1215 31.0776C22.0289 31.1698 21.9078 31.2161 21.7866 31.2161Z" fill="#333333"/>
<path d="M18.3844 31.2158C18.2632 31.2158 18.142 31.1695 18.0494 31.0773C17.8644 30.8925 17.8644 30.5932 18.0494 30.4085L19.0262 29.433C19.2113 29.2482 19.511 29.2482 19.696 29.433C19.8809 29.6179 19.881 29.917 19.696 30.1017L18.7192 31.0773C18.6268 31.1695 18.5055 31.2158 18.3844 31.2158Z" fill="#333333"/>
<path d="M40.5845 34.5268V30.7431L65.2126 6.14844V9.93311L40.5845 34.5268Z" fill="white"/>
<g opacity="0.2">
<path opacity="0.2" d="M40.5845 34.5268V30.7431L65.2126 6.14844V9.93311L40.5845 34.5268Z" fill="#333333"/>
</g>
<g opacity="0.2">
<path opacity="0.2" d="M40.5842 30.7432L63.3188 8.04053H59.0553L36.3218 30.7432H40.5842Z" fill="#333333"/>
</g>
<path d="M62.3715 30.7437H49.1099V34.5274H62.3715V30.7437Z" fill="#FDFDFB"/>
<path d="M51.4775 25.0679H38.2158V28.8516H51.4775V25.0679Z" fill="#FDFDFB"/>
<path d="M51.4776 25.0678H38.2163L62.8443 0.473145H76.1057L51.4776 25.0678Z" fill="white"/>
<g opacity="0.4">
<path opacity="0.4" d="M62.8443 0.473145L38.2163 25.0678H40.1108L64.7389 0.473145H62.8443Z" fill="white"/>
</g>
<path d="M51.4775 28.8515V25.0678L76.1056 0.473145V4.2577L51.4775 28.8515Z" fill="white"/>
<g opacity="0.2">
<path opacity="0.2" d="M53.3721 28.8513L76.1066 6.14844H73.7375L51.0039 28.8513H53.3721Z" fill="#333333"/>
</g>
<g opacity="0.4">
<path opacity="0.4" d="M29.2177 30.7437H27.3232V34.5274H29.2177V30.7437Z" fill="white"/>
</g>
<g opacity="0.4">
<path opacity="0.4" d="M50.996 30.7437H49.1016V34.5274H50.996V30.7437Z" fill="white"/>
</g>
<g opacity="0.4">
<path opacity="0.4" d="M40.1102 25.0679H38.2158V28.8516H40.1102V25.0679Z" fill="white"/>
</g>
<path d="M51.3043 30.1779H38.043C37.7812 30.1779 37.5693 29.9673 37.5693 29.705V25.9212C37.5693 25.6608 37.7812 25.4482 38.043 25.4482H51.3042C51.5659 25.4482 51.7778 25.6608 51.7778 25.9212V29.705C51.7779 29.9673 51.5661 30.1779 51.3043 30.1779ZM38.5166 29.2321H50.8307V26.3942H38.5166V29.2321Z" fill="#333333"/>
<path d="M76.1056 0.945961H62.8442C62.5825 0.945961 62.3706 0.734393 62.3706 0.472981C62.3706 0.211569 62.5825 0 62.8442 0H76.1054C76.3672 0 76.5791 0.211569 76.5791 0.472981C76.5791 0.734393 76.3673 0.945961 76.1056 0.945961Z" fill="#333333"/>
<path d="M51.3042 26.3942C51.183 26.3942 51.0619 26.3479 50.9693 26.2556C50.7843 26.0708 50.7843 25.7716 50.9693 25.5869L75.5974 0.992124C75.7825 0.807313 76.0821 0.807313 76.267 0.992124C76.452 1.17694 76.4521 1.47612 76.267 1.66093L51.639 26.2556C51.5464 26.3479 51.4252 26.3942 51.3042 26.3942Z" fill="#333333"/>
<path d="M51.3042 30.1779C51.183 30.1779 51.0619 30.1318 50.9693 30.0393C50.7843 29.8545 50.7843 29.5553 50.9693 29.3706L75.5974 4.77679C75.7825 4.59198 76.0821 4.59198 76.267 4.77679C76.452 4.9616 76.4521 5.26078 76.267 5.4456L51.639 30.0393C51.5464 30.1318 51.4252 30.1779 51.3042 30.1779Z" fill="#333333"/>
<path d="M38.2164 25.5407C38.0952 25.5407 37.9741 25.4944 37.8815 25.4021C37.6964 25.2172 37.6964 24.9181 37.8815 24.7334L62.5096 0.138609C62.6947 -0.0462029 62.9944 -0.0462029 63.1792 0.138609C63.3643 0.323421 63.3643 0.6226 63.1792 0.807412L38.5512 25.4021C38.4587 25.4944 38.3376 25.5407 38.2164 25.5407Z" fill="#333333"/>
<path d="M76.1058 4.73064C75.8441 4.73064 75.6323 4.51907 75.6323 4.25766V0.472981C75.6323 0.211569 75.8441 0 76.1058 0C76.3676 0 76.5795 0.211569 76.5795 0.472981V4.25766C76.5795 4.51907 76.3676 4.73064 76.1058 4.73064Z" fill="#333333"/>
<path d="M45.7076 34.9997H32.4463C32.1845 34.9997 31.9727 34.7891 31.9727 34.5267V30.743C31.9727 30.4825 32.1845 30.27 32.4463 30.27H45.7076C45.9694 30.27 46.1813 30.4825 46.1813 30.743V34.5267C46.1813 34.7891 45.9694 34.9997 45.7076 34.9997ZM32.9199 34.0537H45.234V31.216H32.9199V34.0537Z" fill="#333333"/>
<path d="M45.7076 34.9995C45.5864 34.9995 45.4653 34.9532 45.3727 34.861C45.1876 34.6762 45.1876 34.3769 45.3727 34.1922L50.0792 29.4921C50.2643 29.3073 50.564 29.3073 50.749 29.4921C50.9339 29.6769 50.9339 29.9762 50.749 30.1609L46.0424 34.861C45.9501 34.9534 45.8288 34.9995 45.7076 34.9995Z" fill="#333333"/>
<path d="M32.4463 31.2165C32.3252 31.2165 32.2039 31.1702 32.1115 31.078C31.9264 30.8931 31.9264 30.5938 32.1115 30.4092L56.7395 5.81439C56.9245 5.62958 57.2242 5.62958 57.4092 5.81439C57.5941 5.9992 57.5943 6.29838 57.4092 6.48319L32.7812 31.078C32.6887 31.1702 32.5675 31.2165 32.4463 31.2165Z" fill="#333333"/>
<path d="M59.3691 34.9997H46.1079C45.8461 34.9997 45.6343 34.7891 45.6343 34.5267V30.743C45.6343 30.4825 45.8461 30.27 46.1079 30.27H59.3691C59.631 30.27 59.8428 30.4825 59.8428 30.743V34.5267C59.8428 34.7891 59.631 34.9997 59.3691 34.9997ZM46.5815 34.0537H58.8956V31.216H46.5815V34.0537Z" fill="#333333"/>
<path d="M84.1513 6.82925H74.6643C74.4545 6.82925 74.2847 6.63832 74.2847 6.40242C74.2847 6.16651 74.4545 5.97559 74.6643 5.97559H84.1513C84.3611 5.97559 84.5308 6.16651 84.5308 6.40242C84.5308 6.63832 84.3611 6.82925 84.1513 6.82925Z" fill="#333333"/>
<path d="M59.3691 31.216C59.2481 31.216 59.1268 31.1697 59.0343 31.0775C58.8492 30.8927 58.8492 30.5934 59.0343 30.4087L83.6623 5.8139C83.8474 5.62909 84.1471 5.62909 84.332 5.8139C84.517 5.99871 84.5171 6.29789 84.332 6.48271L59.704 31.0775C59.6116 31.1697 59.4904 31.216 59.3691 31.216Z" fill="#333333"/>
<path d="M59.3691 34.9997C59.2481 34.9997 59.1268 34.9534 59.0343 34.8612C58.8492 34.6764 58.8492 34.3771 59.0343 34.1924L83.6623 9.59857C83.8474 9.41376 84.1471 9.41376 84.332 9.59857C84.517 9.78338 84.5171 10.0826 84.332 10.2674L59.7039 34.8612C59.6116 34.9535 59.4904 34.9997 59.3691 34.9997Z" fill="#333333"/>
<path d="M83.9971 10.4059C83.7352 10.4059 83.5234 10.1944 83.5234 9.93295V6.14827C83.5234 5.88686 83.7352 5.67529 83.9971 5.67529C84.2588 5.67529 84.4706 5.88686 84.4706 6.14827V9.93295C84.4706 10.1944 84.2588 10.4059 83.9971 10.4059Z" fill="#333333"/>
<path d="M49.1093 31.2161C48.9882 31.2161 48.867 31.1698 48.7745 31.0776C48.5895 30.8928 48.5895 30.5935 48.7745 30.4088L49.7143 29.4702C49.8993 29.2853 50.199 29.2853 50.3841 29.4702C50.5691 29.655 50.5691 29.9543 50.3841 30.139L49.4443 31.0776C49.3517 31.1698 49.2305 31.2161 49.1093 31.2161Z" fill="#333333"/>
<path d="M45.7076 31.2158C45.5864 31.2158 45.4653 31.1695 45.3727 31.0773C45.1876 30.8925 45.1876 30.5932 45.3727 30.4085L46.3495 29.433C46.5345 29.2482 46.8342 29.2482 47.0192 29.433C47.2041 29.6179 47.2043 29.917 47.0192 30.1017L46.0424 31.0773C45.9501 31.1695 45.8288 31.2158 45.7076 31.2158Z" fill="#333333"/>
<path d="M67.0537 34.5268V30.7431L91.6818 6.14844V9.93311L67.0537 34.5268Z" fill="white"/>
<g opacity="0.2">
<path opacity="0.2" d="M67.0537 34.5268V30.7431L91.6818 6.14844V9.93311L67.0537 34.5268Z" fill="#333333"/>
</g>
<g opacity="0.2">
<path opacity="0.2" d="M67.0535 30.7432L89.788 8.04053H85.5245L62.791 30.7432H67.0535Z" fill="#333333"/>
</g>
<path d="M88.8408 30.7437H75.5791V34.5274H88.8408V30.7437Z" fill="#FDFDFB"/>
<path d="M77.9467 25.0679H64.6851V28.8516H77.9467V25.0679Z" fill="#FDFDFB"/>
<path d="M77.9469 25.0678H64.6855L89.3136 0.473145H102.575L77.9469 25.0678Z" fill="white"/>
<g opacity="0.4">
<path opacity="0.4" d="M89.3136 0.473145L64.6855 25.0678H66.5801L91.2081 0.473145H89.3136Z" fill="white"/>
</g>
<path d="M77.9468 28.8515V25.0678L102.575 0.473145V4.2577L77.9468 28.8515Z" fill="white"/>
<g opacity="0.2">
<path opacity="0.2" d="M79.8413 28.8513L102.576 6.14844H100.207L77.4731 28.8513H79.8413Z" fill="#333333"/>
</g>
<g opacity="0.4">
<path opacity="0.4" d="M55.6869 30.7437H53.7925V34.5274H55.6869V30.7437Z" fill="white"/>
</g>
<g opacity="0.4">
<path opacity="0.4" d="M77.4652 30.7437H75.5708V34.5274H77.4652V30.7437Z" fill="white"/>
</g>
<g opacity="0.4">
<path opacity="0.4" d="M66.5795 25.0679H64.6851V28.8516H66.5795V25.0679Z" fill="white"/>
</g>
<path d="M77.7735 30.1779H64.5122C64.2504 30.1779 64.0386 29.9673 64.0386 29.705V25.9212C64.0386 25.6608 64.2504 25.4482 64.5122 25.4482H77.7734C78.0352 25.4482 78.247 25.6608 78.247 25.9212V29.705C78.2472 29.9673 78.0353 30.1779 77.7735 30.1779ZM64.9858 29.2321H77.2999V26.3942H64.9858V29.2321Z" fill="#333333"/>
<path d="M102.575 0.945961H89.3135C89.0517 0.945961 88.8398 0.734393 88.8398 0.472981C88.8398 0.211569 89.0517 0 89.3135 0H102.575C102.836 0 103.048 0.211569 103.048 0.472981C103.048 0.734393 102.837 0.945961 102.575 0.945961Z" fill="#333333"/>
<path d="M77.7734 26.3942C77.6523 26.3942 77.5311 26.3479 77.4385 26.2556C77.2536 26.0708 77.2536 25.7716 77.4385 25.5869L102.067 0.992124C102.252 0.807313 102.551 0.807313 102.736 0.992124C102.921 1.17694 102.921 1.47612 102.736 1.66093L78.1082 26.2556C78.0156 26.3479 77.8945 26.3942 77.7734 26.3942Z" fill="#333333"/>
<path d="M77.7734 30.1779C77.6523 30.1779 77.5311 30.1318 77.4385 30.0393C77.2536 29.8545 77.2536 29.5553 77.4385 29.3706L102.067 4.77679C102.252 4.59198 102.551 4.59198 102.736 4.77679C102.921 4.9616 102.921 5.26078 102.736 5.4456L78.1082 30.0393C78.0156 30.1318 77.8945 30.1779 77.7734 30.1779Z" fill="#333333"/>
<path d="M64.6856 25.5407C64.5645 25.5407 64.4433 25.4944 64.3507 25.4021C64.1656 25.2172 64.1656 24.9181 64.3507 24.7334L88.9788 0.138609C89.1639 -0.0462029 89.4636 -0.0462029 89.6485 0.138609C89.8335 0.323421 89.8335 0.6226 89.6485 0.807412L65.0204 25.4021C64.928 25.4944 64.8068 25.5407 64.6856 25.5407Z" fill="#333333"/>
<path d="M102.575 4.73064C102.313 4.73064 102.102 4.51907 102.102 4.25766V0.472981C102.102 0.211569 102.313 0 102.575 0C102.837 0 103.049 0.211569 103.049 0.472981V4.25766C103.049 4.51907 102.837 4.73064 102.575 4.73064Z" fill="#333333"/>
<path d="M72.1769 35.0002H58.9155C58.6538 35.0002 58.4419 34.7896 58.4419 34.5272V30.7435C58.4419 30.483 58.6538 30.2705 58.9155 30.2705H72.1769C72.4386 30.2705 72.6505 30.483 72.6505 30.7435V34.5272C72.6505 34.7896 72.4386 35.0002 72.1769 35.0002ZM59.3892 34.0542H71.7032V31.2165H59.3892V34.0542Z" fill="#333333"/>
<path d="M72.1768 35C72.0557 35 71.9345 34.9537 71.8419 34.8615C71.6569 34.6767 71.6569 34.3774 71.8419 34.1927L76.5485 29.4926C76.7335 29.3078 77.0333 29.3078 77.2182 29.4926C77.4032 29.6774 77.4032 29.9767 77.2182 30.1614L72.5116 34.8615C72.4193 34.9539 72.298 35 72.1768 35Z" fill="#333333"/>
<path d="M58.9155 31.217C58.7945 31.217 58.6732 31.1707 58.5807 31.0784C58.3956 30.8936 58.3956 30.5943 58.5807 30.4096L83.2087 5.81488C83.3938 5.63007 83.6935 5.63007 83.8784 5.81488C84.0634 5.99969 84.0635 6.29887 83.8784 6.48368L59.2504 31.0784C59.1579 31.1707 59.0368 31.217 58.9155 31.217Z" fill="#333333"/>
<path d="M85.8384 34.9997H72.5771C72.3154 34.9997 72.1035 34.7891 72.1035 34.5267V30.743C72.1035 30.4825 72.3154 30.27 72.5771 30.27H85.8384C86.1002 30.27 86.312 30.4825 86.312 30.743V34.5267C86.312 34.7891 86.1002 34.9997 85.8384 34.9997ZM73.0508 34.0537H85.3648V31.216H73.0508V34.0537Z" fill="#333333"/>
<path d="M110.652 5.97573H101.956C101.764 5.97573 101.608 5.78481 101.608 5.5489C101.608 5.313 101.764 5.12207 101.956 5.12207H110.652C110.845 5.12207 111 5.313 111 5.5489C111 5.78481 110.845 5.97573 110.652 5.97573Z" fill="#333333"/>
<path d="M85.8383 31.216C85.7173 31.216 85.596 31.1697 85.5035 31.0775C85.3185 30.8927 85.3185 30.5934 85.5035 30.4087L110.132 5.8139C110.317 5.62909 110.616 5.62909 110.801 5.8139C110.986 5.99871 110.986 6.29789 110.801 6.48271L86.1733 31.0775C86.0808 31.1697 85.9596 31.216 85.8383 31.216Z" fill="#333333"/>
<path d="M85.8383 34.9997C85.7173 34.9997 85.596 34.9534 85.5035 34.8612C85.3185 34.6764 85.3185 34.3771 85.5035 34.1924L110.132 9.59857C110.317 9.41376 110.616 9.41376 110.801 9.59857C110.986 9.78338 110.986 10.0826 110.801 10.2674L86.1732 34.8612C86.0808 34.9535 85.9596 34.9997 85.8383 34.9997Z" fill="#333333"/>
<path d="M110.466 10.4059C110.204 10.4059 109.993 10.1944 109.993 9.93295V6.14827C109.993 5.88686 110.204 5.67529 110.466 5.67529C110.728 5.67529 110.94 5.88686 110.94 6.14827V9.93295C110.94 10.1944 110.728 10.4059 110.466 10.4059Z" fill="#333333"/>
<path d="M75.5786 31.2161C75.4574 31.2161 75.3363 31.1698 75.2438 31.0776C75.0587 30.8928 75.0587 30.5935 75.2438 30.4088L76.1836 29.4702C76.3685 29.2853 76.6682 29.2853 76.8533 29.4702C77.0384 29.655 77.0384 29.9543 76.8533 30.139L75.9135 31.0776C75.8209 31.1698 75.6997 31.2161 75.5786 31.2161Z" fill="#333333"/>
<path d="M72.1768 31.2158C72.0557 31.2158 71.9345 31.1695 71.8419 31.0773C71.6569 30.8925 71.6569 30.5932 71.8419 30.4085L72.8187 29.433C73.0038 29.2482 73.3035 29.2482 73.4884 29.433C73.6734 29.6179 73.6735 29.917 73.4884 30.1017L72.5116 31.0773C72.4193 31.1695 72.298 31.2158 72.1768 31.2158Z" fill="#333333"/>
</svg>
