<svg width="102" height="74" viewBox="0 0 102 74" fill="none" xmlns="http://www.w3.org/2000/svg">
<path d="M51 25L47.5 30V54L51.5 43L51 25Z" fill="white"/>
<path d="M28 19H48.5L49 19.5L43.5 26.5H14L28 19Z" fill="white"/>
<path d="M56.633 16.5C56.627 16.402 56.619 16.305 56.604 16.208C56.588 16.123 56.565 16.042 56.542 15.96C56.521 15.875 56.497 15.79 56.464 15.708C56.436 15.628 56.395 15.552 56.356 15.475C56.317 15.396 56.278 15.319 56.231 15.244C56.184 15.172 56.128 15.103 56.077 15.035C56.024 14.968 55.973 14.899 55.915 14.837C55.847 14.766 55.77 14.703 55.694 14.639C55.647 14.601 55.61 14.555 55.559 14.519C55.544 14.509 55.53 14.503 55.516 14.494C55.432 14.433 55.339 14.387 55.249 14.338C55.186 14.302 55.12 14.26 55.052 14.231C54.973 14.194 54.884 14.171 54.8 14.144C54.718 14.117 54.634 14.085 54.55 14.066C54.477 14.05 54.399 14.045 54.321 14.035C54.221 14.022 54.125 14.006 54.022 14.005C54.002 14.005 53.987 14 53.967 14H27.121C27.094 14 27.067 14.007 27.04 14.008C26.939 14.011 26.841 14.024 26.741 14.038C26.661 14.05 26.581 14.059 26.502 14.078C26.419 14.099 26.338 14.126 26.257 14.155C26.167 14.185 26.077 14.217 25.989 14.259C25.963 14.271 25.934 14.277 25.908 14.29L1.713 26.55C1.666 26.572 1.628 26.606 1.583 26.632C1.5 26.68 1.419 26.731 1.343 26.786C1.273 26.838 1.207 26.892 1.143 26.951C1.08 27.008 1.018 27.066 0.96 27.128C0.899 27.193 0.844 27.263 0.79 27.334C0.739 27.401 0.691 27.469 0.647 27.541C0.601 27.614 0.562 27.691 0.523 27.77C0.484 27.846 0.45 27.924 0.419 28.007C0.388 28.088 0.363 28.172 0.341 28.257C0.32 28.338 0.3 28.419 0.286 28.503C0.27 28.598 0.263 28.694 0.257 28.793C0.254 28.844 0.242 28.892 0.242 28.943V47.115C0.112 48.015 0.027 48.953 0 49.933L0.242 49.939V70.982C0.242 72.463 1.443 73.666 2.925 73.666H44.956C44.958 73.666 44.962 73.666 44.964 73.666C45.13 73.666 45.294 73.646 45.454 73.617C45.505 73.605 45.555 73.596 45.603 73.582C45.708 73.557 45.814 73.521 45.915 73.482C45.973 73.461 46.023 73.441 46.077 73.418C46.18 73.371 46.275 73.316 46.37 73.258C46.409 73.237 46.45 73.215 46.486 73.19C46.618 73.1 46.74 73.002 46.851 72.889C46.868 72.871 46.878 72.856 46.894 72.838C46.988 72.738 47.077 72.635 47.154 72.526C47.183 72.483 47.212 72.436 47.238 72.391C47.294 72.299 47.343 72.207 47.388 72.116C47.413 72.057 47.441 72 47.462 71.936C47.478 71.897 47.497 71.862 47.509 71.823L56.515 44.368C56.529 44.321 56.533 44.274 56.544 44.227C56.565 44.133 56.589 44.041 56.605 43.955C56.622 43.86 56.626 43.767 56.632 43.676C56.634 43.627 56.648 43.582 56.648 43.531V16.68C56.653 16.618 56.637 16.56 56.633 16.5ZM5.61 31.626H11.612C9.428 32.798 7.371 34.256 5.61 36.064V31.626V31.626ZM17.706 31.85C17.934 31.772 18.162 31.698 18.39 31.625H24.439H28.449C26.822 31.932 25.138 32.308 23.446 32.771C14.573 35.195 8.547 39.192 5.611 44.492V40.273H5.61C8.088 36.561 12.123 33.74 17.706 31.85ZM7.091 68.298H5.608V60.57L6.228 52.333C6.754 32.833 41.92 32.979 42.266 32.969L42.28 31.628V34.67C39.104 34.74 32.735 35.097 26.251 36.715C13.951 39.784 7.326 45.965 7.092 54.623V68.298H7.091ZM10.639 68.298H9.775V54.66H9.774C10.188 39.327 34.963 37.549 42.279 37.361V38.269C39.777 38.318 33.72 38.62 27.546 40.284C16.701 43.207 10.855 48.956 10.64 56.949L10.639 68.298ZM13.753 68.298H13.322V56.984C13.714 42.51 36.825 41.096 42.282 40.961V42.261C39.977 42.306 34.692 42.575 29.303 44.044C19.612 46.686 14.385 51.94 14.189 59.21L13.753 68.298ZM23.428 68.296C23.484 63.475 24.962 59.688 27.84 57.055C32.733 52.576 40.332 52.563 42.279 52.641V53.653C40.135 53.374 36.336 53.766 33.283 55.102C29.56 56.731 25.23 60.341 25.034 68.296H23.428ZM27.727 68.296C27.842 64.266 29.182 61.18 31.738 59.128C35.488 56.118 40.722 56.156 42.097 56.315L42.092 56.541C42.153 56.541 42.215 56.543 42.28 56.545V57.733C37.048 57.934 28.768 60.286 28.384 68.296H27.727ZM42.282 68.298H35.256V68.296C36.006 66.874 37.396 65.817 39.469 65.108C40.448 64.772 41.435 64.571 42.282 64.452V68.298ZM42.282 61.719C38.498 62.18 33.778 63.911 32.344 68.296H31.071C31.278 65.014 33.285 62.693 37.05 61.411C39.05 60.726 41.071 60.507 42.281 60.433V61.719H42.282ZM42.282 49.953C39.83 49.855 31.639 49.953 26.042 55.062C22.579 58.226 20.799 62.679 20.74 68.295H20.415V61.636C20.723 50.2 37.692 48.947 42.282 48.818V49.953ZM42.284 46.13H42.282C40.188 46.18 35.664 46.442 31.047 47.741C22.519 50.14 17.914 54.923 17.735 61.599V68.292H16.444L16.871 59.308C17.221 46.357 37.254 45.066 42.286 44.947L42.284 46.13ZM43.604 26.259H29.803H24.436H14.154L24.436 21.048L27.76 19.362H29.803H48.667L43.604 26.259ZM50.262 46.208L47.647 54.187V46.208V40.842V29.822L51.285 24.869V40.842C51.285 40.842 51.432 42.646 51.418 42.69L50.262 46.208Z" fill="#333333"/>
<rect x="2" y="8" width="16" height="17" fill="white"/>
<path d="M22.9938 1.1732C22.9915 1.12721 22.9884 1.08169 22.9825 1.03617C22.9763 0.996279 22.9674 0.958268 22.9585 0.919787C22.9503 0.879898 22.941 0.840009 22.9282 0.801528C22.9173 0.763986 22.9014 0.728321 22.8862 0.692187C22.8711 0.655113 22.8559 0.618979 22.8377 0.583783C22.8194 0.549995 22.7977 0.517615 22.7779 0.485704C22.7573 0.454262 22.7375 0.421882 22.715 0.392787C22.6886 0.359468 22.6587 0.329903 22.6291 0.299869C22.6109 0.282037 22.5965 0.26045 22.5767 0.243556C22.5709 0.238863 22.5654 0.236047 22.56 0.231824C22.5274 0.203198 22.4913 0.181611 22.4563 0.158616C22.4319 0.141722 22.4062 0.122013 22.3798 0.108403C22.3491 0.0910401 22.3146 0.0802467 22.2819 0.0675762C22.2501 0.0549056 22.2175 0.0398887 22.1849 0.0309724C22.1565 0.0234639 22.1262 0.0211176 22.0959 0.0164248C22.0571 0.0103241 22.0198 0.00281567 21.9798 0.00234639C21.972 0.00234639 21.9662 0 21.9584 0H11.5326C11.5221 0 11.5116 0.00328495 11.5012 0.00375423C11.4619 0.00516207 11.4239 0.0112627 11.385 0.0178326C11.354 0.0234639 11.3229 0.0276875 11.2922 0.0366038C11.26 0.0464586 11.2285 0.0591292 11.1971 0.0727382C11.1621 0.0868166 11.1272 0.101834 11.093 0.121543C11.0829 0.127175 11.0716 0.12999 11.0615 0.136091L1.66525 5.88945C1.647 5.89978 1.63224 5.91573 1.61477 5.92793C1.58254 5.95046 1.55108 5.97439 1.52156 6.0002C1.49438 6.0246 1.46875 6.04994 1.44389 6.07763C1.41943 6.10438 1.39535 6.1316 1.37282 6.16069C1.34913 6.1912 1.32777 6.22405 1.3068 6.25737C1.287 6.28881 1.26835 6.32072 1.25127 6.35451C1.2334 6.38876 1.21826 6.4249 1.20311 6.46197C1.18796 6.49764 1.17476 6.53424 1.16272 6.57319C1.15068 6.6112 1.14097 6.65062 1.13243 6.69051C1.12427 6.72852 1.11651 6.76653 1.11107 6.80595C1.10486 6.85053 1.10214 6.89559 1.09981 6.94204C1.09864 6.96598 1.09398 6.9885 1.09398 7.01244V15.5402C1.0435 15.9625 1.01049 16.4027 1 16.8626L1.09398 16.8654V26.7405C1.09398 27.4355 1.5604 28 2.13594 28H18.459C18.4597 28 18.4613 28 18.4621 28C18.5265 28 18.5902 27.9906 18.6524 27.977C18.6722 27.9714 18.6916 27.9672 18.7102 27.9606C18.751 27.9488 18.7922 27.932 18.8314 27.9137C18.8539 27.9038 18.8733 27.8944 18.8943 27.8836C18.9343 27.8616 18.9712 27.8358 19.0081 27.8085C19.0232 27.7987 19.0392 27.7884 19.0531 27.7766C19.1044 27.7344 19.1518 27.6884 19.1949 27.6354C19.2015 27.6269 19.2054 27.6199 19.2116 27.6114C19.2481 27.5645 19.2827 27.5162 19.3126 27.465C19.3238 27.4448 19.3351 27.4228 19.3452 27.4017C19.3669 27.3585 19.386 27.3153 19.4034 27.2726C19.4132 27.2449 19.424 27.2182 19.4322 27.1881C19.4384 27.1698 19.4458 27.1534 19.4504 27.1351L22.948 14.2511C22.9534 14.229 22.955 14.207 22.9592 14.1849C22.9674 14.1408 22.9767 14.0976 22.9829 14.0573C22.9895 14.0127 22.9911 13.969 22.9934 13.9263C22.9942 13.9033 22.9996 13.8822 22.9996 13.8583V1.25767C23.0016 1.22857 22.9954 1.20135 22.9938 1.1732ZM3.17868 8.27151H5.5096C4.66143 8.82151 3.86258 9.50571 3.17868 10.3542V8.27151V8.27151ZM7.87624 8.37663C7.96479 8.34003 8.05333 8.3053 8.14188 8.27104H10.491H12.0484C11.4165 8.41511 10.7625 8.59156 10.1054 8.80884C6.65952 9.94637 4.31928 11.8221 3.17907 14.3093V12.3294H3.17868C4.14103 10.5874 5.70805 9.26357 7.87624 8.37663ZM3.75384 25.4809H3.1779V21.8543L3.41869 17.9889C3.62296 8.83793 17.2799 8.90645 17.4143 8.90175L17.4197 8.27245V9.7C16.1863 9.73285 13.7129 9.90038 11.1948 10.6597C6.41796 12.0999 3.8451 15.0005 3.75423 19.0635V25.4809H3.75384ZM5.13173 25.4809H4.79619V19.0809H4.7958C4.95658 11.8854 14.5781 11.0511 17.4193 10.9628V11.3889C16.4477 11.4119 14.0954 11.5536 11.6977 12.3345C7.48594 13.7062 5.21561 16.4041 5.13211 20.1551L5.13173 25.4809ZM6.34107 25.4809H6.17369V20.1715C6.32592 13.3791 15.3012 12.7156 17.4205 12.6522V13.2623C16.5253 13.2834 14.4729 13.4096 12.38 14.099C8.61645 15.3389 6.58651 17.8044 6.51039 21.2161L6.34107 25.4809ZM10.0984 25.48C10.1202 23.2176 10.6942 21.4404 11.8118 20.2048C13.7121 18.1029 16.6632 18.0968 17.4193 18.1334V18.6083C16.5867 18.4774 15.1113 18.6613 13.9257 19.2883C12.4798 20.0528 10.7982 21.7469 10.7221 25.48H10.0984ZM11.768 25.48C11.8126 23.5888 12.333 22.1406 13.3257 21.1776C14.782 19.7651 16.8147 19.7829 17.3487 19.8575L17.3467 19.9636C17.3704 19.9636 17.3945 19.9645 17.4197 19.9655V20.523C15.3878 20.6173 12.1722 21.721 12.0231 25.48H11.768ZM17.4205 25.4809H14.6919V25.48C14.9832 24.8127 15.523 24.3166 16.328 23.9839C16.7083 23.8262 17.0916 23.7319 17.4205 23.6761V25.4809ZM17.4205 22.3935C15.951 22.6099 14.1179 23.4222 13.561 25.48H13.0666C13.147 23.9398 13.9265 22.8506 15.3886 22.249C16.1653 21.9275 16.9502 21.8248 17.4201 21.79V22.3935H17.4205ZM17.4205 16.872C16.4682 16.826 13.2872 16.872 11.1136 19.2695C9.7687 20.7543 9.07743 22.844 9.05452 25.4795H8.9283V22.3546C9.04792 16.9879 15.6379 16.3999 17.4205 16.3394V16.872ZM17.4213 15.0779H17.4205C16.6073 15.1014 14.8504 15.2243 13.0573 15.8339C9.7454 16.9597 7.95702 19.2043 7.88751 22.3372V25.4781H7.38614L7.55197 21.2621C7.68789 15.1845 15.4678 14.5786 17.422 14.5228L17.4213 15.0779ZM17.9339 5.75289H12.5742H10.4899H6.4968L10.4899 3.30748L11.7808 2.51627H12.5742H19.9002L17.9339 5.75289ZM20.5196 15.1145L19.504 18.8589V15.1145V12.5964V7.42493L20.9169 5.10059V12.5964C20.9169 12.5964 20.974 13.443 20.9685 13.4636L20.5196 15.1145Z" fill="#333333"/>
<rect x="15" y="8" width="16" height="17" fill="white"/>
<path d="M35.9938 1.1732C35.9915 1.12721 35.9884 1.08169 35.9825 1.03617C35.9763 0.996279 35.9674 0.958268 35.9585 0.919787C35.9503 0.879898 35.941 0.840009 35.9282 0.801528C35.9173 0.763986 35.9014 0.728321 35.8862 0.692187C35.8711 0.655113 35.8559 0.618979 35.8377 0.583783C35.8194 0.549995 35.7977 0.517615 35.7779 0.485704C35.7573 0.454262 35.7375 0.421882 35.715 0.392787C35.6886 0.359468 35.6587 0.329903 35.6291 0.299869C35.6109 0.282037 35.5965 0.26045 35.5767 0.243556C35.5709 0.238863 35.5654 0.236047 35.56 0.231824C35.5274 0.203198 35.4913 0.181611 35.4563 0.158616C35.4319 0.141722 35.4062 0.122013 35.3798 0.108403C35.3491 0.0910401 35.3146 0.0802467 35.2819 0.0675762C35.2501 0.0549056 35.2175 0.0398887 35.1849 0.0309724C35.1565 0.0234639 35.1262 0.0211176 35.0959 0.0164248C35.0571 0.0103241 35.0198 0.00281567 34.9798 0.00234639C34.972 0.00234639 34.9662 0 34.9584 0H24.5326C24.5221 0 24.5116 0.00328495 24.5012 0.00375423C24.4619 0.00516207 24.4239 0.0112627 24.385 0.0178326C24.354 0.0234639 24.3229 0.0276875 24.2922 0.0366038C24.26 0.0464586 24.2285 0.0591292 24.1971 0.0727382C24.1621 0.0868166 24.1272 0.101834 24.093 0.121543C24.0829 0.127175 24.0716 0.12999 24.0615 0.136091L14.6653 5.88945C14.647 5.89978 14.6322 5.91573 14.6148 5.92793C14.5825 5.95046 14.5511 5.97439 14.5216 6.0002C14.4944 6.0246 14.4687 6.04994 14.4439 6.07763C14.4194 6.10438 14.3953 6.1316 14.3728 6.16069C14.3491 6.1912 14.3278 6.22405 14.3068 6.25737C14.287 6.28881 14.2684 6.32072 14.2513 6.35451C14.2334 6.38876 14.2183 6.4249 14.2031 6.46197C14.188 6.49764 14.1748 6.53424 14.1627 6.57319C14.1507 6.6112 14.141 6.65062 14.1324 6.69051C14.1243 6.72852 14.1165 6.76653 14.1111 6.80595C14.1049 6.85053 14.1021 6.89559 14.0998 6.94204C14.0986 6.96598 14.094 6.9885 14.094 7.01244V15.5402C14.0435 15.9625 14.0105 16.4027 14 16.8626L14.094 16.8654V26.7405C14.094 27.4355 14.5604 28 15.1359 28H31.459C31.4597 28 31.4613 28 31.4621 28C31.5265 28 31.5902 27.9906 31.6524 27.977C31.6722 27.9714 31.6916 27.9672 31.7102 27.9606C31.751 27.9488 31.7922 27.932 31.8314 27.9137C31.8539 27.9038 31.8733 27.8944 31.8943 27.8836C31.9343 27.8616 31.9712 27.8358 32.0081 27.8085C32.0232 27.7987 32.0392 27.7884 32.0531 27.7766C32.1044 27.7344 32.1518 27.6884 32.1949 27.6354C32.2015 27.6269 32.2054 27.6199 32.2116 27.6114C32.2481 27.5645 32.2827 27.5162 32.3126 27.465C32.3238 27.4448 32.3351 27.4228 32.3452 27.4017C32.3669 27.3585 32.386 27.3153 32.4034 27.2726C32.4132 27.2449 32.424 27.2182 32.4322 27.1881C32.4384 27.1698 32.4458 27.1534 32.4504 27.1351L35.948 14.2511C35.9534 14.229 35.955 14.207 35.9592 14.1849C35.9674 14.1408 35.9767 14.0976 35.9829 14.0573C35.9895 14.0127 35.9911 13.969 35.9934 13.9263C35.9942 13.9033 35.9996 13.8822 35.9996 13.8583V1.25767C36.0016 1.22857 35.9954 1.20135 35.9938 1.1732ZM16.1787 8.27151H18.5096C17.6614 8.82151 16.8626 9.50571 16.1787 10.3542V8.27151V8.27151ZM20.8762 8.37663C20.9648 8.34003 21.0533 8.3053 21.1419 8.27104H23.491H25.0484C24.4165 8.41511 23.7625 8.59156 23.1054 8.80884C19.6595 9.94637 17.3193 11.8221 16.1791 14.3093V12.3294H16.1787C17.141 10.5874 18.708 9.26357 20.8762 8.37663ZM16.7538 25.4809H16.1779V21.8543L16.4187 17.9889C16.623 8.83793 30.2799 8.90645 30.4143 8.90175L30.4197 8.27245V9.7C29.1863 9.73285 26.7129 9.90038 24.1948 10.6597C19.418 12.0999 16.8451 15.0005 16.7542 19.0635V25.4809H16.7538ZM18.1317 25.4809H17.7962V19.0809H17.7958C17.9566 11.8854 27.5781 11.0511 30.4193 10.9628V11.3889C29.4477 11.4119 27.0954 11.5536 24.6977 12.3345C20.4859 13.7062 18.2156 16.4041 18.1321 20.1551L18.1317 25.4809ZM19.3411 25.4809H19.1737V20.1715C19.3259 13.3791 28.3012 12.7156 30.4205 12.6522V13.2623C29.5253 13.2834 27.4729 13.4096 25.38 14.099C21.6165 15.3389 19.5865 17.8044 19.5104 21.2161L19.3411 25.4809ZM23.0984 25.48C23.1202 23.2176 23.6942 21.4404 24.8118 20.2048C26.7121 18.1029 29.6632 18.0968 30.4193 18.1334V18.6083C29.5867 18.4774 28.1113 18.6613 26.9257 19.2883C25.4798 20.0528 23.7982 21.7469 23.7221 25.48H23.0984ZM24.768 25.48C24.8126 23.5888 25.333 22.1406 26.3257 21.1776C27.782 19.7651 29.8147 19.7829 30.3487 19.8575L30.3467 19.9636C30.3704 19.9636 30.3945 19.9645 30.4197 19.9655V20.523C28.3878 20.6173 25.1722 21.721 25.0231 25.48H24.768ZM30.4205 25.4809H27.6919V25.48C27.9832 24.8127 28.523 24.3166 29.328 23.9839C29.7083 23.8262 30.0916 23.7319 30.4205 23.6761V25.4809ZM30.4205 22.3935C28.951 22.6099 27.1179 23.4222 26.561 25.48H26.0666C26.147 23.9398 26.9265 22.8506 28.3886 22.249C29.1653 21.9275 29.9502 21.8248 30.4201 21.79V22.3935H30.4205ZM30.4205 16.872C29.4682 16.826 26.2872 16.872 24.1136 19.2695C22.7687 20.7543 22.0774 22.844 22.0545 25.4795H21.9283V22.3546C22.0479 16.9879 28.6379 16.3999 30.4205 16.3394V16.872ZM30.4213 15.0779H30.4205C29.6073 15.1014 27.8504 15.2243 26.0573 15.8339C22.7454 16.9597 20.957 19.2043 20.8875 22.3372V25.4781H20.3861L20.552 21.2621C20.6879 15.1845 28.4678 14.5786 30.422 14.5228L30.4213 15.0779ZM30.9339 5.75289H25.5742H23.4899H19.4968L23.4899 3.30748L24.7808 2.51627H25.5742H32.9002L30.9339 5.75289ZM33.5196 15.1145L32.504 18.8589V15.1145V12.5964V7.42493L33.9169 5.10059V12.5964C33.9169 12.5964 33.974 13.443 33.9685 13.4636L33.5196 15.1145Z" fill="#333333"/>
<rect x="30" y="8" width="16" height="17" fill="white"/>
<path d="M50.9938 1.1732C50.9915 1.12721 50.9884 1.08169 50.9825 1.03617C50.9763 0.996279 50.9674 0.958268 50.9585 0.919787C50.9503 0.879898 50.941 0.840009 50.9282 0.801528C50.9173 0.763986 50.9014 0.728321 50.8862 0.692187C50.8711 0.655113 50.8559 0.618979 50.8377 0.583783C50.8194 0.549995 50.7977 0.517615 50.7779 0.485704C50.7573 0.454262 50.7375 0.421882 50.715 0.392787C50.6886 0.359468 50.6587 0.329903 50.6291 0.299869C50.6109 0.282037 50.5965 0.26045 50.5767 0.243556C50.5709 0.238863 50.5654 0.236047 50.56 0.231824C50.5274 0.203198 50.4913 0.181611 50.4563 0.158616C50.4319 0.141722 50.4062 0.122013 50.3798 0.108403C50.3491 0.0910401 50.3146 0.0802467 50.2819 0.0675762C50.2501 0.0549056 50.2175 0.0398887 50.1849 0.0309724C50.1565 0.0234639 50.1262 0.0211176 50.0959 0.0164248C50.0571 0.0103241 50.0198 0.00281567 49.9798 0.00234639C49.972 0.00234639 49.9662 0 49.9584 0H39.5326C39.5221 0 39.5116 0.00328495 39.5012 0.00375423C39.4619 0.00516207 39.4239 0.0112627 39.385 0.0178326C39.354 0.0234639 39.3229 0.0276875 39.2922 0.0366038C39.26 0.0464586 39.2285 0.0591292 39.1971 0.0727382C39.1621 0.0868166 39.1272 0.101834 39.093 0.121543C39.0829 0.127175 39.0716 0.12999 39.0615 0.136091L29.6653 5.88945C29.647 5.89978 29.6322 5.91573 29.6148 5.92793C29.5825 5.95046 29.5511 5.97439 29.5216 6.0002C29.4944 6.0246 29.4687 6.04994 29.4439 6.07763C29.4194 6.10438 29.3953 6.1316 29.3728 6.16069C29.3491 6.1912 29.3278 6.22405 29.3068 6.25737C29.287 6.28881 29.2684 6.32072 29.2513 6.35451C29.2334 6.38876 29.2183 6.4249 29.2031 6.46197C29.188 6.49764 29.1748 6.53424 29.1627 6.57319C29.1507 6.6112 29.141 6.65062 29.1324 6.69051C29.1243 6.72852 29.1165 6.76653 29.1111 6.80595C29.1049 6.85053 29.1021 6.89559 29.0998 6.94204C29.0986 6.96598 29.094 6.9885 29.094 7.01244V15.5402C29.0435 15.9625 29.0105 16.4027 29 16.8626L29.094 16.8654V26.7405C29.094 27.4355 29.5604 28 30.1359 28H46.459C46.4597 28 46.4613 28 46.4621 28C46.5265 28 46.5902 27.9906 46.6524 27.977C46.6722 27.9714 46.6916 27.9672 46.7102 27.9606C46.751 27.9488 46.7922 27.932 46.8314 27.9137C46.8539 27.9038 46.8733 27.8944 46.8943 27.8836C46.9343 27.8616 46.9712 27.8358 47.0081 27.8085C47.0232 27.7987 47.0392 27.7884 47.0531 27.7766C47.1044 27.7344 47.1518 27.6884 47.1949 27.6354C47.2015 27.6269 47.2054 27.6199 47.2116 27.6114C47.2481 27.5645 47.2827 27.5162 47.3126 27.465C47.3238 27.4448 47.3351 27.4228 47.3452 27.4017C47.3669 27.3585 47.386 27.3153 47.4034 27.2726C47.4132 27.2449 47.424 27.2182 47.4322 27.1881C47.4384 27.1698 47.4458 27.1534 47.4504 27.1351L50.948 14.2511C50.9534 14.229 50.955 14.207 50.9592 14.1849C50.9674 14.1408 50.9767 14.0976 50.9829 14.0573C50.9895 14.0127 50.9911 13.969 50.9934 13.9263C50.9942 13.9033 50.9996 13.8822 50.9996 13.8583V1.25767C51.0016 1.22857 50.9954 1.20135 50.9938 1.1732ZM31.1787 8.27151H33.5096C32.6614 8.82151 31.8626 9.50571 31.1787 10.3542V8.27151V8.27151ZM35.8762 8.37663C35.9648 8.34003 36.0533 8.3053 36.1419 8.27104H38.491H40.0484C39.4165 8.41511 38.7625 8.59156 38.1054 8.80884C34.6595 9.94637 32.3193 11.8221 31.1791 14.3093V12.3294H31.1787C32.141 10.5874 33.708 9.26357 35.8762 8.37663ZM31.7538 25.4809H31.1779V21.8543L31.4187 17.9889C31.623 8.83793 45.2799 8.90645 45.4143 8.90175L45.4197 8.27245V9.7C44.1863 9.73285 41.7129 9.90038 39.1948 10.6597C34.418 12.0999 31.8451 15.0005 31.7542 19.0635V25.4809H31.7538ZM33.1317 25.4809H32.7962V19.0809H32.7958C32.9566 11.8854 42.5781 11.0511 45.4193 10.9628V11.3889C44.4477 11.4119 42.0954 11.5536 39.6977 12.3345C35.4859 13.7062 33.2156 16.4041 33.1321 20.1551L33.1317 25.4809ZM34.3411 25.4809H34.1737V20.1715C34.3259 13.3791 43.3012 12.7156 45.4205 12.6522V13.2623C44.5253 13.2834 42.4729 13.4096 40.38 14.099C36.6165 15.3389 34.5865 17.8044 34.5104 21.2161L34.3411 25.4809ZM38.0984 25.48C38.1202 23.2176 38.6942 21.4404 39.8118 20.2048C41.7121 18.1029 44.6632 18.0968 45.4193 18.1334V18.6083C44.5867 18.4774 43.1113 18.6613 41.9257 19.2883C40.4798 20.0528 38.7982 21.7469 38.7221 25.48H38.0984ZM39.768 25.48C39.8126 23.5888 40.333 22.1406 41.3257 21.1776C42.782 19.7651 44.8147 19.7829 45.3487 19.8575L45.3467 19.9636C45.3704 19.9636 45.3945 19.9645 45.4197 19.9655V20.523C43.3878 20.6173 40.1722 21.721 40.0231 25.48H39.768ZM45.4205 25.4809H42.6919V25.48C42.9832 24.8127 43.523 24.3166 44.328 23.9839C44.7083 23.8262 45.0916 23.7319 45.4205 23.6761V25.4809ZM45.4205 22.3935C43.951 22.6099 42.1179 23.4222 41.561 25.48H41.0666C41.147 23.9398 41.9265 22.8506 43.3886 22.249C44.1653 21.9275 44.9502 21.8248 45.4201 21.79V22.3935H45.4205ZM45.4205 16.872C44.4682 16.826 41.2872 16.872 39.1136 19.2695C37.7687 20.7543 37.0774 22.844 37.0545 25.4795H36.9283V22.3546C37.0479 16.9879 43.6379 16.3999 45.4205 16.3394V16.872ZM45.4213 15.0779H45.4205C44.6073 15.1014 42.8504 15.2243 41.0573 15.8339C37.7454 16.9597 35.957 19.2043 35.8875 22.3372V25.4781H35.3861L35.552 21.2621C35.6879 15.1845 43.4678 14.5786 45.422 14.5228L45.4213 15.0779ZM45.9339 5.75289H40.5742H38.4899H34.4968L38.4899 3.30748L39.7808 2.51627H40.5742H47.9002L45.9339 5.75289ZM48.5196 15.1145L47.504 18.8589V15.1145V12.5964V7.42493L48.9169 5.10059V12.5964C48.9169 12.5964 48.974 13.443 48.9685 13.4636L48.5196 15.1145Z" fill="#333333"/>
<rect x="47" y="30" width="39" height="40" fill="white"/>
<path d="M101.633 16.5C101.627 16.402 101.619 16.305 101.604 16.208C101.588 16.123 101.565 16.042 101.542 15.96C101.521 15.875 101.497 15.79 101.464 15.708C101.436 15.628 101.395 15.552 101.356 15.475C101.317 15.396 101.278 15.319 101.231 15.244C101.184 15.172 101.128 15.103 101.077 15.035C101.024 14.968 100.973 14.899 100.915 14.837C100.847 14.766 100.77 14.703 100.694 14.639C100.647 14.601 100.61 14.555 100.559 14.519C100.544 14.509 100.53 14.503 100.516 14.494C100.432 14.433 100.339 14.387 100.249 14.338C100.186 14.302 100.12 14.26 100.052 14.231C99.973 14.194 99.884 14.171 99.8 14.144C99.718 14.117 99.634 14.085 99.55 14.066C99.477 14.05 99.399 14.045 99.321 14.035C99.221 14.022 99.125 14.006 99.022 14.005C99.002 14.005 98.987 14 98.967 14H72.121C72.094 14 72.067 14.007 72.04 14.008C71.939 14.011 71.841 14.024 71.741 14.038C71.661 14.05 71.581 14.059 71.502 14.078C71.419 14.099 71.338 14.126 71.257 14.155C71.167 14.185 71.077 14.217 70.989 14.259C70.963 14.271 70.934 14.277 70.908 14.29L46.713 26.55C46.666 26.572 46.628 26.606 46.583 26.632C46.5 26.68 46.419 26.731 46.343 26.786C46.273 26.838 46.207 26.892 46.143 26.951C46.08 27.008 46.018 27.066 45.96 27.128C45.899 27.193 45.844 27.263 45.79 27.334C45.739 27.401 45.691 27.469 45.647 27.541C45.601 27.614 45.562 27.691 45.523 27.77C45.484 27.846 45.45 27.924 45.419 28.007C45.388 28.088 45.363 28.172 45.341 28.257C45.32 28.338 45.3 28.419 45.286 28.503C45.27 28.598 45.263 28.694 45.257 28.793C45.254 28.844 45.242 28.892 45.242 28.943V47.115C45.112 48.015 45.027 48.953 45 49.933L45.242 49.939V70.982C45.242 72.463 46.443 73.666 47.925 73.666H89.956C89.958 73.666 89.962 73.666 89.964 73.666C90.13 73.666 90.294 73.646 90.454 73.617C90.505 73.605 90.555 73.596 90.603 73.582C90.708 73.557 90.814 73.521 90.915 73.482C90.973 73.461 91.023 73.441 91.077 73.418C91.18 73.371 91.275 73.316 91.37 73.258C91.409 73.237 91.45 73.215 91.486 73.19C91.618 73.1 91.74 73.002 91.851 72.889C91.868 72.871 91.878 72.856 91.894 72.838C91.988 72.738 92.077 72.635 92.154 72.526C92.183 72.483 92.212 72.436 92.238 72.391C92.294 72.299 92.343 72.207 92.388 72.116C92.413 72.057 92.441 72 92.462 71.936C92.478 71.897 92.497 71.862 92.509 71.823L101.515 44.368C101.529 44.321 101.533 44.274 101.544 44.227C101.565 44.133 101.589 44.041 101.605 43.955C101.622 43.86 101.626 43.767 101.632 43.676C101.634 43.627 101.648 43.582 101.648 43.531V16.68C101.653 16.618 101.637 16.56 101.633 16.5ZM50.61 31.626H56.612C54.428 32.798 52.371 34.256 50.61 36.064V31.626V31.626ZM62.706 31.85C62.934 31.772 63.162 31.698 63.39 31.625H69.439H73.449C71.822 31.932 70.138 32.308 68.446 32.771C59.573 35.195 53.547 39.192 50.611 44.492V40.273H50.61C53.088 36.561 57.123 33.74 62.706 31.85ZM52.091 68.298H50.608V60.57L51.228 52.333C51.754 32.833 86.92 32.979 87.266 32.969L87.28 31.628V34.67C84.104 34.74 77.735 35.097 71.251 36.715C58.951 39.784 52.326 45.965 52.092 54.623V68.298H52.091ZM55.639 68.298H54.775V54.66H54.774C55.188 39.327 79.963 37.549 87.279 37.361V38.269C84.777 38.318 78.72 38.62 72.546 40.284C61.701 43.207 55.855 48.956 55.64 56.949L55.639 68.298ZM58.753 68.298H58.322V56.984C58.714 42.51 81.825 41.096 87.282 40.961V42.261C84.977 42.306 79.692 42.575 74.303 44.044C64.612 46.686 59.385 51.94 59.189 59.21L58.753 68.298ZM68.428 68.296C68.484 63.475 69.962 59.688 72.84 57.055C77.733 52.576 85.332 52.563 87.279 52.641V53.653C85.135 53.374 81.336 53.766 78.283 55.102C74.56 56.731 70.23 60.341 70.034 68.296H68.428ZM72.727 68.296C72.842 64.266 74.182 61.18 76.738 59.128C80.488 56.118 85.722 56.156 87.097 56.315L87.092 56.541C87.153 56.541 87.215 56.543 87.28 56.545V57.733C82.048 57.934 73.768 60.286 73.384 68.296H72.727ZM87.282 68.298H80.256V68.296C81.006 66.874 82.396 65.817 84.469 65.108C85.448 64.772 86.435 64.571 87.282 64.452V68.298ZM87.282 61.719C83.498 62.18 78.778 63.911 77.344 68.296H76.071C76.278 65.014 78.285 62.693 82.05 61.411C84.05 60.726 86.071 60.507 87.281 60.433V61.719H87.282ZM87.282 49.953C84.83 49.855 76.639 49.953 71.042 55.062C67.579 58.226 65.799 62.679 65.74 68.295H65.415V61.636C65.723 50.2 82.692 48.947 87.282 48.818V49.953ZM87.284 46.13H87.282C85.188 46.18 80.664 46.442 76.047 47.741C67.519 50.14 62.914 54.923 62.735 61.599V68.292H61.444L61.871 59.308C62.221 46.357 82.254 45.066 87.286 44.947L87.284 46.13ZM88.604 26.259H74.803H69.436H59.154L69.436 21.048L72.76 19.362H74.803H93.667L88.604 26.259ZM95.262 46.208L92.647 54.187V46.208V40.842V29.822L96.285 24.869V40.842C96.285 40.842 96.432 42.646 96.418 42.69L95.262 46.208Z" fill="#333333"/>
<rect x="47" y="8" width="16" height="17" fill="white"/>
<path d="M67.9938 1.1732C67.9915 1.12721 67.9884 1.08169 67.9825 1.03617C67.9763 0.996279 67.9674 0.958268 67.9585 0.919787C67.9503 0.879898 67.941 0.840009 67.9282 0.801528C67.9173 0.763986 67.9014 0.728321 67.8862 0.692187C67.8711 0.655113 67.8559 0.618979 67.8377 0.583783C67.8194 0.549995 67.7977 0.517615 67.7779 0.485704C67.7573 0.454262 67.7375 0.421882 67.715 0.392787C67.6886 0.359468 67.6587 0.329903 67.6291 0.299869C67.6109 0.282037 67.5965 0.26045 67.5767 0.243556C67.5709 0.238863 67.5654 0.236047 67.56 0.231824C67.5274 0.203198 67.4913 0.181611 67.4563 0.158616C67.4319 0.141722 67.4062 0.122013 67.3798 0.108403C67.3491 0.0910401 67.3146 0.0802467 67.2819 0.0675762C67.2501 0.0549056 67.2175 0.0398887 67.1849 0.0309724C67.1565 0.0234639 67.1262 0.0211176 67.0959 0.0164248C67.0571 0.0103241 67.0198 0.00281567 66.9798 0.00234639C66.972 0.00234639 66.9662 0 66.9584 0H56.5326C56.5221 0 56.5116 0.00328495 56.5012 0.00375423C56.4619 0.00516207 56.4239 0.0112627 56.385 0.0178326C56.354 0.0234639 56.3229 0.0276875 56.2922 0.0366038C56.26 0.0464586 56.2285 0.0591292 56.1971 0.0727382C56.1621 0.0868166 56.1272 0.101834 56.093 0.121543C56.0829 0.127175 56.0716 0.12999 56.0615 0.136091L46.6653 5.88945C46.647 5.89978 46.6322 5.91573 46.6148 5.92793C46.5825 5.95046 46.5511 5.97439 46.5216 6.0002C46.4944 6.0246 46.4687 6.04994 46.4439 6.07763C46.4194 6.10438 46.3953 6.1316 46.3728 6.16069C46.3491 6.1912 46.3278 6.22405 46.3068 6.25737C46.287 6.28881 46.2684 6.32072 46.2513 6.35451C46.2334 6.38876 46.2183 6.4249 46.2031 6.46197C46.188 6.49764 46.1748 6.53424 46.1627 6.57319C46.1507 6.6112 46.141 6.65062 46.1324 6.69051C46.1243 6.72852 46.1165 6.76653 46.1111 6.80595C46.1049 6.85053 46.1021 6.89559 46.0998 6.94204C46.0986 6.96598 46.094 6.9885 46.094 7.01244V15.5402C46.0435 15.9625 46.0105 16.4027 46 16.8626L46.094 16.8654V26.7405C46.094 27.4355 46.5604 28 47.1359 28H63.459C63.4597 28 63.4613 28 63.4621 28C63.5265 28 63.5902 27.9906 63.6524 27.977C63.6722 27.9714 63.6916 27.9672 63.7102 27.9606C63.751 27.9488 63.7922 27.932 63.8314 27.9137C63.8539 27.9038 63.8733 27.8944 63.8943 27.8836C63.9343 27.8616 63.9712 27.8358 64.0081 27.8085C64.0232 27.7987 64.0392 27.7884 64.0531 27.7766C64.1044 27.7344 64.1518 27.6884 64.1949 27.6354C64.2015 27.6269 64.2054 27.6199 64.2116 27.6114C64.2481 27.5645 64.2827 27.5162 64.3126 27.465C64.3238 27.4448 64.3351 27.4228 64.3452 27.4017C64.3669 27.3585 64.386 27.3153 64.4034 27.2726C64.4132 27.2449 64.424 27.2182 64.4322 27.1881C64.4384 27.1698 64.4458 27.1534 64.4504 27.1351L67.948 14.2511C67.9534 14.229 67.955 14.207 67.9592 14.1849C67.9674 14.1408 67.9767 14.0976 67.9829 14.0573C67.9895 14.0127 67.9911 13.969 67.9934 13.9263C67.9942 13.9033 67.9996 13.8822 67.9996 13.8583V1.25767C68.0016 1.22857 67.9954 1.20135 67.9938 1.1732ZM48.1787 8.27151H50.5096C49.6614 8.82151 48.8626 9.50571 48.1787 10.3542V8.27151V8.27151ZM52.8762 8.37663C52.9648 8.34003 53.0533 8.3053 53.1419 8.27104H55.491H57.0484C56.4165 8.41511 55.7625 8.59156 55.1054 8.80884C51.6595 9.94637 49.3193 11.8221 48.1791 14.3093V12.3294H48.1787C49.141 10.5874 50.708 9.26357 52.8762 8.37663ZM48.7538 25.4809H48.1779V21.8543L48.4187 17.9889C48.623 8.83793 62.2799 8.90645 62.4143 8.90175L62.4197 8.27245V9.7C61.1863 9.73285 58.7129 9.90038 56.1948 10.6597C51.418 12.0999 48.8451 15.0005 48.7542 19.0635V25.4809H48.7538ZM50.1317 25.4809H49.7962V19.0809H49.7958C49.9566 11.8854 59.5781 11.0511 62.4193 10.9628V11.3889C61.4477 11.4119 59.0954 11.5536 56.6977 12.3345C52.4859 13.7062 50.2156 16.4041 50.1321 20.1551L50.1317 25.4809ZM51.3411 25.4809H51.1737V20.1715C51.3259 13.3791 60.3012 12.7156 62.4205 12.6522V13.2623C61.5253 13.2834 59.4729 13.4096 57.38 14.099C53.6165 15.3389 51.5865 17.8044 51.5104 21.2161L51.3411 25.4809ZM55.0984 25.48C55.1202 23.2176 55.6942 21.4404 56.8118 20.2048C58.7121 18.1029 61.6632 18.0968 62.4193 18.1334V18.6083C61.5867 18.4774 60.1113 18.6613 58.9257 19.2883C57.4798 20.0528 55.7982 21.7469 55.7221 25.48H55.0984ZM56.768 25.48C56.8126 23.5888 57.333 22.1406 58.3257 21.1776C59.782 19.7651 61.8147 19.7829 62.3487 19.8575L62.3467 19.9636C62.3704 19.9636 62.3945 19.9645 62.4197 19.9655V20.523C60.3878 20.6173 57.1722 21.721 57.0231 25.48H56.768ZM62.4205 25.4809H59.6919V25.48C59.9832 24.8127 60.523 24.3166 61.328 23.9839C61.7083 23.8262 62.0916 23.7319 62.4205 23.6761V25.4809ZM62.4205 22.3935C60.951 22.6099 59.1179 23.4222 58.561 25.48H58.0666C58.147 23.9398 58.9265 22.8506 60.3886 22.249C61.1653 21.9275 61.9502 21.8248 62.4201 21.79V22.3935H62.4205ZM62.4205 16.872C61.4682 16.826 58.2872 16.872 56.1136 19.2695C54.7687 20.7543 54.0774 22.844 54.0545 25.4795H53.9283V22.3546C54.0479 16.9879 60.6379 16.3999 62.4205 16.3394V16.872ZM62.4213 15.0779H62.4205C61.6073 15.1014 59.8504 15.2243 58.0573 15.8339C54.7454 16.9597 52.957 19.2043 52.8875 22.3372V25.4781H52.3861L52.552 21.2621C52.6879 15.1845 60.4678 14.5786 62.422 14.5228L62.4213 15.0779ZM62.9339 5.75289H57.5742H55.4899H51.4968L55.4899 3.30748L56.7808 2.51627H57.5742H64.9002L62.9339 5.75289ZM65.5196 15.1145L64.504 18.8589V15.1145V12.5964V7.42493L65.9169 5.10059V12.5964C65.9169 12.5964 65.974 13.443 65.9685 13.4636L65.5196 15.1145Z" fill="#333333"/>
<rect x="60" y="8" width="16" height="17" fill="white"/>
<path d="M80.9938 1.1732C80.9915 1.12721 80.9884 1.08169 80.9825 1.03617C80.9763 0.996279 80.9674 0.958268 80.9585 0.919787C80.9503 0.879898 80.941 0.840009 80.9282 0.801528C80.9173 0.763986 80.9014 0.728321 80.8862 0.692187C80.8711 0.655113 80.8559 0.618979 80.8377 0.583783C80.8194 0.549995 80.7977 0.517615 80.7779 0.485704C80.7573 0.454262 80.7375 0.421882 80.715 0.392787C80.6886 0.359468 80.6587 0.329903 80.6291 0.299869C80.6109 0.282037 80.5965 0.26045 80.5767 0.243556C80.5709 0.238863 80.5654 0.236047 80.56 0.231824C80.5274 0.203198 80.4913 0.181611 80.4563 0.158616C80.4319 0.141722 80.4062 0.122013 80.3798 0.108403C80.3491 0.0910401 80.3146 0.0802467 80.2819 0.0675762C80.2501 0.0549056 80.2175 0.0398887 80.1849 0.0309724C80.1565 0.0234639 80.1262 0.0211176 80.0959 0.0164248C80.0571 0.0103241 80.0198 0.00281567 79.9798 0.00234639C79.972 0.00234639 79.9662 0 79.9584 0H69.5326C69.5221 0 69.5116 0.00328495 69.5012 0.00375423C69.4619 0.00516207 69.4239 0.0112627 69.385 0.0178326C69.354 0.0234639 69.3229 0.0276875 69.2922 0.0366038C69.26 0.0464586 69.2285 0.0591292 69.1971 0.0727382C69.1621 0.0868166 69.1272 0.101834 69.093 0.121543C69.0829 0.127175 69.0716 0.12999 69.0615 0.136091L59.6653 5.88945C59.647 5.89978 59.6322 5.91573 59.6148 5.92793C59.5825 5.95046 59.5511 5.97439 59.5216 6.0002C59.4944 6.0246 59.4687 6.04994 59.4439 6.07763C59.4194 6.10438 59.3953 6.1316 59.3728 6.16069C59.3491 6.1912 59.3278 6.22405 59.3068 6.25737C59.287 6.28881 59.2684 6.32072 59.2513 6.35451C59.2334 6.38876 59.2183 6.4249 59.2031 6.46197C59.188 6.49764 59.1748 6.53424 59.1627 6.57319C59.1507 6.6112 59.141 6.65062 59.1324 6.69051C59.1243 6.72852 59.1165 6.76653 59.1111 6.80595C59.1049 6.85053 59.1021 6.89559 59.0998 6.94204C59.0986 6.96598 59.094 6.9885 59.094 7.01244V15.5402C59.0435 15.9625 59.0105 16.4027 59 16.8626L59.094 16.8654V26.7405C59.094 27.4355 59.5604 28 60.1359 28H76.459C76.4597 28 76.4613 28 76.4621 28C76.5265 28 76.5902 27.9906 76.6524 27.977C76.6722 27.9714 76.6916 27.9672 76.7102 27.9606C76.751 27.9488 76.7922 27.932 76.8314 27.9137C76.8539 27.9038 76.8733 27.8944 76.8943 27.8836C76.9343 27.8616 76.9712 27.8358 77.0081 27.8085C77.0232 27.7987 77.0392 27.7884 77.0531 27.7766C77.1044 27.7344 77.1518 27.6884 77.1949 27.6354C77.2015 27.6269 77.2054 27.6199 77.2116 27.6114C77.2481 27.5645 77.2827 27.5162 77.3126 27.465C77.3238 27.4448 77.3351 27.4228 77.3452 27.4017C77.3669 27.3585 77.386 27.3153 77.4034 27.2726C77.4132 27.2449 77.424 27.2182 77.4322 27.1881C77.4384 27.1698 77.4458 27.1534 77.4504 27.1351L80.948 14.2511C80.9534 14.229 80.955 14.207 80.9592 14.1849C80.9674 14.1408 80.9767 14.0976 80.9829 14.0573C80.9895 14.0127 80.9911 13.969 80.9934 13.9263C80.9942 13.9033 80.9996 13.8822 80.9996 13.8583V1.25767C81.0016 1.22857 80.9954 1.20135 80.9938 1.1732ZM61.1787 8.27151H63.5096C62.6614 8.82151 61.8626 9.50571 61.1787 10.3542V8.27151V8.27151ZM65.8762 8.37663C65.9648 8.34003 66.0533 8.3053 66.1419 8.27104H68.491H70.0484C69.4165 8.41511 68.7625 8.59156 68.1054 8.80884C64.6595 9.94637 62.3193 11.8221 61.1791 14.3093V12.3294H61.1787C62.141 10.5874 63.708 9.26357 65.8762 8.37663ZM61.7538 25.4809H61.1779V21.8543L61.4187 17.9889C61.623 8.83793 75.2799 8.90645 75.4143 8.90175L75.4197 8.27245V9.7C74.1863 9.73285 71.7129 9.90038 69.1948 10.6597C64.418 12.0999 61.8451 15.0005 61.7542 19.0635V25.4809H61.7538ZM63.1317 25.4809H62.7962V19.0809H62.7958C62.9566 11.8854 72.5781 11.0511 75.4193 10.9628V11.3889C74.4477 11.4119 72.0954 11.5536 69.6977 12.3345C65.4859 13.7062 63.2156 16.4041 63.1321 20.1551L63.1317 25.4809ZM64.3411 25.4809H64.1737V20.1715C64.3259 13.3791 73.3012 12.7156 75.4205 12.6522V13.2623C74.5253 13.2834 72.4729 13.4096 70.38 14.099C66.6165 15.3389 64.5865 17.8044 64.5104 21.2161L64.3411 25.4809ZM68.0984 25.48C68.1202 23.2176 68.6942 21.4404 69.8118 20.2048C71.7121 18.1029 74.6632 18.0968 75.4193 18.1334V18.6083C74.5867 18.4774 73.1113 18.6613 71.9257 19.2883C70.4798 20.0528 68.7982 21.7469 68.7221 25.48H68.0984ZM69.768 25.48C69.8126 23.5888 70.333 22.1406 71.3257 21.1776C72.782 19.7651 74.8147 19.7829 75.3487 19.8575L75.3467 19.9636C75.3704 19.9636 75.3945 19.9645 75.4197 19.9655V20.523C73.3878 20.6173 70.1722 21.721 70.0231 25.48H69.768ZM75.4205 25.4809H72.6919V25.48C72.9832 24.8127 73.523 24.3166 74.328 23.9839C74.7083 23.8262 75.0916 23.7319 75.4205 23.6761V25.4809ZM75.4205 22.3935C73.951 22.6099 72.1179 23.4222 71.561 25.48H71.0666C71.147 23.9398 71.9265 22.8506 73.3886 22.249C74.1653 21.9275 74.9502 21.8248 75.4201 21.79V22.3935H75.4205ZM75.4205 16.872C74.4682 16.826 71.2872 16.872 69.1136 19.2695C67.7687 20.7543 67.0774 22.844 67.0545 25.4795H66.9283V22.3546C67.0479 16.9879 73.6379 16.3999 75.4205 16.3394V16.872ZM75.4213 15.0779H75.4205C74.6073 15.1014 72.8504 15.2243 71.0573 15.8339C67.7454 16.9597 65.957 19.2043 65.8875 22.3372V25.4781H65.3861L65.552 21.2621C65.6879 15.1845 73.4678 14.5786 75.422 14.5228L75.4213 15.0779ZM75.9339 5.75289H70.5742H68.4899H64.4968L68.4899 3.30748L69.7808 2.51627H70.5742H77.9002L75.9339 5.75289ZM78.5196 15.1145L77.504 18.8589V15.1145V12.5964V7.42493L78.9169 5.10059V12.5964C78.9169 12.5964 78.974 13.443 78.9685 13.4636L78.5196 15.1145Z" fill="#333333"/>
<rect x="75" y="8" width="16" height="17" fill="white"/>
<path d="M95.9938 1.1732C95.9915 1.12721 95.9884 1.08169 95.9825 1.03617C95.9763 0.996279 95.9674 0.958268 95.9585 0.919787C95.9503 0.879898 95.941 0.840009 95.9282 0.801528C95.9173 0.763986 95.9014 0.728321 95.8862 0.692187C95.8711 0.655113 95.8559 0.618979 95.8377 0.583783C95.8194 0.549995 95.7977 0.517615 95.7779 0.485704C95.7573 0.454262 95.7375 0.421882 95.715 0.392787C95.6886 0.359468 95.6587 0.329903 95.6291 0.299869C95.6109 0.282037 95.5965 0.26045 95.5767 0.243556C95.5709 0.238863 95.5654 0.236047 95.56 0.231824C95.5274 0.203198 95.4913 0.181611 95.4563 0.158616C95.4319 0.141722 95.4062 0.122013 95.3798 0.108403C95.3491 0.0910401 95.3146 0.0802467 95.2819 0.0675762C95.2501 0.0549056 95.2175 0.0398887 95.1849 0.0309724C95.1565 0.0234639 95.1262 0.0211176 95.0959 0.0164248C95.0571 0.0103241 95.0198 0.00281567 94.9798 0.00234639C94.972 0.00234639 94.9662 0 94.9584 0H84.5326C84.5221 0 84.5116 0.00328495 84.5012 0.00375423C84.4619 0.00516207 84.4239 0.0112627 84.385 0.0178326C84.354 0.0234639 84.3229 0.0276875 84.2922 0.0366038C84.26 0.0464586 84.2285 0.0591292 84.1971 0.0727382C84.1621 0.0868166 84.1272 0.101834 84.093 0.121543C84.0829 0.127175 84.0716 0.12999 84.0615 0.136091L74.6653 5.88945C74.647 5.89978 74.6322 5.91573 74.6148 5.92793C74.5825 5.95046 74.5511 5.97439 74.5216 6.0002C74.4944 6.0246 74.4687 6.04994 74.4439 6.07763C74.4194 6.10438 74.3953 6.1316 74.3728 6.16069C74.3491 6.1912 74.3278 6.22405 74.3068 6.25737C74.287 6.28881 74.2684 6.32072 74.2513 6.35451C74.2334 6.38876 74.2183 6.4249 74.2031 6.46197C74.188 6.49764 74.1748 6.53424 74.1627 6.57319C74.1507 6.6112 74.141 6.65062 74.1324 6.69051C74.1243 6.72852 74.1165 6.76653 74.1111 6.80595C74.1049 6.85053 74.1021 6.89559 74.0998 6.94204C74.0986 6.96598 74.094 6.9885 74.094 7.01244V15.5402C74.0435 15.9625 74.0105 16.4027 74 16.8626L74.094 16.8654V26.7405C74.094 27.4355 74.5604 28 75.1359 28H91.459C91.4597 28 91.4613 28 91.4621 28C91.5265 28 91.5902 27.9906 91.6524 27.977C91.6722 27.9714 91.6916 27.9672 91.7102 27.9606C91.751 27.9488 91.7922 27.932 91.8314 27.9137C91.8539 27.9038 91.8733 27.8944 91.8943 27.8836C91.9343 27.8616 91.9712 27.8358 92.0081 27.8085C92.0232 27.7987 92.0392 27.7884 92.0531 27.7766C92.1044 27.7344 92.1518 27.6884 92.1949 27.6354C92.2015 27.6269 92.2054 27.6199 92.2116 27.6114C92.2481 27.5645 92.2827 27.5162 92.3126 27.465C92.3238 27.4448 92.3351 27.4228 92.3452 27.4017C92.3669 27.3585 92.386 27.3153 92.4034 27.2726C92.4132 27.2449 92.424 27.2182 92.4322 27.1881C92.4384 27.1698 92.4458 27.1534 92.4504 27.1351L95.948 14.2511C95.9534 14.229 95.955 14.207 95.9592 14.1849C95.9674 14.1408 95.9767 14.0976 95.9829 14.0573C95.9895 14.0127 95.9911 13.969 95.9934 13.9263C95.9942 13.9033 95.9996 13.8822 95.9996 13.8583V1.25767C96.0016 1.22857 95.9954 1.20135 95.9938 1.1732ZM76.1787 8.27151H78.5096C77.6614 8.82151 76.8626 9.50571 76.1787 10.3542V8.27151V8.27151ZM80.8762 8.37663C80.9648 8.34003 81.0533 8.3053 81.1419 8.27104H83.491H85.0484C84.4165 8.41511 83.7625 8.59156 83.1054 8.80884C79.6595 9.94637 77.3193 11.8221 76.1791 14.3093V12.3294H76.1787C77.141 10.5874 78.708 9.26357 80.8762 8.37663ZM76.7538 25.4809H76.1779V21.8543L76.4187 17.9889C76.623 8.83793 90.2799 8.90645 90.4143 8.90175L90.4197 8.27245V9.7C89.1863 9.73285 86.7129 9.90038 84.1948 10.6597C79.418 12.0999 76.8451 15.0005 76.7542 19.0635V25.4809H76.7538ZM78.1317 25.4809H77.7962V19.0809H77.7958C77.9566 11.8854 87.5781 11.0511 90.4193 10.9628V11.3889C89.4477 11.4119 87.0954 11.5536 84.6977 12.3345C80.4859 13.7062 78.2156 16.4041 78.1321 20.1551L78.1317 25.4809ZM79.3411 25.4809H79.1737V20.1715C79.3259 13.3791 88.3012 12.7156 90.4205 12.6522V13.2623C89.5253 13.2834 87.4729 13.4096 85.38 14.099C81.6165 15.3389 79.5865 17.8044 79.5104 21.2161L79.3411 25.4809ZM83.0984 25.48C83.1202 23.2176 83.6942 21.4404 84.8118 20.2048C86.7121 18.1029 89.6632 18.0968 90.4193 18.1334V18.6083C89.5867 18.4774 88.1113 18.6613 86.9257 19.2883C85.4798 20.0528 83.7982 21.7469 83.7221 25.48H83.0984ZM84.768 25.48C84.8126 23.5888 85.333 22.1406 86.3257 21.1776C87.782 19.7651 89.8147 19.7829 90.3487 19.8575L90.3467 19.9636C90.3704 19.9636 90.3945 19.9645 90.4197 19.9655V20.523C88.3878 20.6173 85.1722 21.721 85.0231 25.48H84.768ZM90.4205 25.4809H87.6919V25.48C87.9832 24.8127 88.523 24.3166 89.328 23.9839C89.7083 23.8262 90.0916 23.7319 90.4205 23.6761V25.4809ZM90.4205 22.3935C88.951 22.6099 87.1179 23.4222 86.561 25.48H86.0666C86.147 23.9398 86.9265 22.8506 88.3886 22.249C89.1653 21.9275 89.9502 21.8248 90.4201 21.79V22.3935H90.4205ZM90.4205 16.872C89.4682 16.826 86.2872 16.872 84.1136 19.2695C82.7687 20.7543 82.0774 22.844 82.0545 25.4795H81.9283V22.3546C82.0479 16.9879 88.6379 16.3999 90.4205 16.3394V16.872ZM90.4213 15.0779H90.4205C89.6073 15.1014 87.8504 15.2243 86.0573 15.8339C82.7454 16.9597 80.957 19.2043 80.8875 22.3372V25.4781H80.3861L80.552 21.2621C80.6879 15.1845 88.4678 14.5786 90.422 14.5228L90.4213 15.0779ZM90.9339 5.75289H85.5742H83.4899H79.4968L83.4899 3.30748L84.7808 2.51627H85.5742H92.9002L90.9339 5.75289ZM93.5196 15.1145L92.504 18.8589V15.1145V12.5964V7.42493L93.9169 5.10059V12.5964C93.9169 12.5964 93.974 13.443 93.9685 13.4636L93.5196 15.1145Z" fill="#333333"/>
</svg>
