<svg width="38" height="48" viewBox="0 0 38 48" fill="none" xmlns="http://www.w3.org/2000/svg">
<rect x="3.72559" y="1" width="29.9814" height="0.909308" fill="#333333"/>
<rect x="7.54248" y="11.0024" width="29.9814" height="0.909308" fill="#333333"/>
<rect x="1" y="19.186" width="29.9814" height="0.909308" fill="#333333"/>
<rect x="6.45117" y="27.3701" width="29.9814" height="0.909308" fill="#333333"/>
<rect x="1" y="34.6445" width="29.9814" height="0.909308" fill="#333333"/>
<path d="M14.0025 1C11.7312 2.21241 8.55138 5.45561 14.0025 8.72912" stroke="black"/>
<path d="M14.0023 16.458C16.2737 15.2456 19.4535 12.0024 14.0023 8.72889" stroke="black"/>
<path d="M13.3061 31.4646C11.0024 32.6141 7.7347 35.7686 13.0939 39.1908" stroke="black"/>
<path d="M12.8819 46.9172C15.1856 45.7677 18.4533 42.6132 13.094 39.191" stroke="black"/>
<path d="M12.6175 31.8199C14.9918 30.8246 18.4597 27.892 13.337 24.1244" stroke="black"/>
<path d="M14.0563 16.4291C11.682 17.4244 8.21413 20.357 13.3368 24.1246" stroke="black"/>
<path d="M23.9962 1C21.7249 2.21241 18.545 5.45561 23.9962 8.72912" stroke="black"/>
<path d="M23.9965 16.458C26.2678 15.2456 29.4476 12.0024 23.9965 8.72889" stroke="black"/>
<path d="M23.2997 31.4646C20.996 32.6141 17.7284 35.7686 23.0876 39.1908" stroke="black"/>
<path d="M22.8755 46.9172C25.1793 45.7677 28.4469 42.6132 23.0877 39.191" stroke="black"/>
<path d="M22.6116 31.8199C24.9859 30.8246 28.4538 27.892 23.3311 24.1244" stroke="black"/>
<path d="M24.05 16.4291C21.6757 17.4244 18.2078 20.357 23.3305 24.1246" stroke="black"/>
<path d="M33.9898 1C31.7185 2.21241 28.5387 5.45561 33.9898 8.72912" stroke="black"/>
<path d="M33.9901 16.458C36.2614 15.2456 39.4413 12.0024 33.9901 8.72889" stroke="black"/>
<path d="M33.2934 31.4646C30.9897 32.6141 27.722 35.7686 33.0813 39.1908" stroke="black"/>
<path d="M32.8692 46.9172C35.1729 45.7677 38.4406 42.6132 33.0813 39.191" stroke="black"/>
<path d="M32.6053 31.8199C34.9796 30.8246 38.4475 27.892 33.3248 24.1244" stroke="black"/>
<path d="M34.0436 16.4291C31.6693 17.4244 28.2014 20.357 33.3241 24.1246" stroke="black"/>
<path d="M4.91709 1C2.64578 2.21241 -0.534065 5.45561 4.91709 8.72912" stroke="black"/>
<path d="M4.91738 16.458C7.1887 15.2456 10.3685 12.0024 4.91738 8.72889" stroke="black"/>
<path d="M4.22064 31.4646C1.91691 32.6141 -1.35075 35.7686 4.0085 39.1908" stroke="black"/>
<path d="M3.79645 46.9172C6.10018 45.7677 9.36784 42.6132 4.00859 39.191" stroke="black"/>
<path d="M3.53252 31.8199C5.90682 30.8246 9.37474 27.892 4.25203 24.1244" stroke="black"/>
<path d="M4.97089 16.4291C2.5966 17.4244 -0.871323 20.357 4.25139 24.1246" stroke="black"/>
</svg>
