<svg width="39" height="29" viewBox="0 0 39 29" fill="none" xmlns="http://www.w3.org/2000/svg">
<path d="M33.5566 0H28.1131H10.1092H4.66582H0L0.779223 5.81244C0.377901 5.84554 0.0591207 6.19274 0.0591207 6.62858V17.4C0.0591207 17.8573 0.406689 18.2285 0.836717 18.2285C1.26674 18.2285 1.61431 17.8573 1.61431 17.4V12.0407L3.17585 23.6855C3.7046 26.9137 5.68681 29 8.22429 29H12.8901H18.3336H18.7224H19.5H19.8888H25.3323H30.7758C33.5519 29 35.2005 26.2715 35.8265 23.673L37.3857 12.0432V17.3999C37.3857 17.8572 37.7333 18.2284 38.1633 18.2284C38.5933 18.2284 38.9409 17.8572 38.9409 17.3999V6.62858C38.9409 6.19274 38.622 5.84554 38.2209 5.81244L39 0H33.5566ZM28.0019 0.828616H32.6599L31.9935 5.80005H27.3347L28.0019 0.828616ZM31.8831 6.62858L31.3278 10.7714H26.669L27.2242 6.62858H31.8831ZM19.5 15.7429V11.6H23.3881H25.774L25.2187 15.7428H19.5V15.7429ZM25.1075 16.5715L24.5523 20.7143H19.5V16.5715H25.1075ZM25.1145 10.7715C25.4878 10.3307 25.7211 9.7532 25.7211 9.11434V6.62858H26.4396L25.8844 10.7714H25.1145V10.7715ZM25.8914 16.5715H30.551L29.9958 20.7143H25.3362L25.8914 16.5715ZM26.0026 15.7429L26.5578 11.6001H31.2175L30.6622 15.7429H26.0026ZM19.5 0.828616H27.2172L26.5508 5.80005H25.7211V4.97152C25.7211 3.6011 24.6744 2.48576 23.3881 2.48576H19.5V0.828616ZM18.7224 0.828616V2.48576H14.8343C13.5481 2.48576 12.5013 3.60101 12.5013 4.97152V5.80005H11.6716L11.0052 0.828616H18.7224ZM12.3309 16.5715L12.8862 20.7143H8.22819L7.67293 16.5715H12.3309ZM7.56168 15.7429L7.00642 11.6001H11.6645L12.2198 15.7429H7.56168ZM11.7828 6.62858H12.5013V9.11434C12.5013 9.7532 12.7354 10.3307 13.1079 10.7715H12.338L11.7828 6.62858ZM11.5533 10.7715H6.89533L6.34007 6.62867H10.9981L11.5533 10.7715ZM10.2205 0.828616L10.8869 5.80005H6.22882L5.56239 0.828616H10.2205ZM1.56227 5.80005L0.895838 0.828616H4.77707L5.4435 5.80005H1.56227ZM1.67343 6.62858H5.55385L6.10911 10.7714H2.2287L1.67343 6.62858ZM2.34068 11.6H6.22109L6.77636 15.7428H2.89586L2.34068 11.6ZM3.00711 16.5715H6.88752L7.44279 20.7143H3.56237L3.00711 16.5715ZM8.22429 28.1715C5.62696 28.1715 4.3089 25.7802 3.94336 23.5556L3.67354 21.5429H7.55395L7.84086 23.6856C8.17216 25.7049 9.07109 27.2767 10.3192 28.1715H8.22429ZM12.8901 28.1715C10.2928 28.1715 8.97472 25.7802 8.60918 23.5556L8.33936 21.5429H12.9975L13.2844 23.6856C13.6157 25.7049 14.5146 27.2767 15.7627 28.1715H12.8901ZM18.7224 28.1715H18.3336C15.7363 28.1715 14.4182 25.7802 14.0527 23.5556L13.7829 21.5429H18.7224V28.1715ZM18.7224 20.7144H13.6717L13.1164 16.5715H18.7224V20.7144ZM18.7224 15.7429H13.0052L12.4499 11.6001H14.8342H18.7223V15.7429H18.7224ZM18.7224 9.94287H14.8343C14.405 9.94287 14.0567 9.57081 14.0567 9.11434V6.62858V5.80005V4.97152C14.0567 4.51497 14.405 4.14299 14.8343 4.14299H18.0435C18.0233 4.23164 18.0093 4.32357 18.0093 4.41897C18.0093 4.92101 18.3064 5.3461 18.7224 5.51351C18.8437 5.56238 18.9736 5.59218 19.1112 5.59218C19.2488 5.59218 19.3787 5.56238 19.5 5.51351C19.916 5.34532 20.2131 4.92023 20.2131 4.41897C20.2131 4.32366 20.1991 4.23172 20.1789 4.14299H23.3882C23.8174 4.14299 24.1658 4.51497 24.1658 4.97152V5.80005V6.62858V9.11434C24.1658 9.57089 23.8174 9.94287 23.3882 9.94287H19.5001H18.7224ZM19.5 28.1715V21.5429H24.4419L24.1783 23.5108C23.6332 25.7636 22.2202 28.1715 19.8889 28.1715H19.5ZM22.3167 28.1715C23.6589 27.1664 24.5251 25.3941 24.9396 23.6731L25.225 21.5429H29.8846L29.621 23.5108C29.0767 25.7636 27.6637 28.1715 25.3324 28.1715H22.3167ZM35.0652 23.5108C34.52 25.7636 33.107 28.1715 30.7757 28.1715H27.7601C29.1023 27.1664 29.9685 25.3941 30.383 23.6731L30.6684 21.5429H35.328L35.0652 23.5108ZM35.4393 20.7144H30.7796L31.3348 16.5715H35.9944L35.4393 20.7144ZM36.1056 15.7429H31.446L32.0012 11.6001H36.6609L36.1056 15.7429ZM36.7721 10.7715H32.1133L32.6686 6.62867H37.3274L36.7721 10.7715ZM37.4377 5.80005H32.7789L33.4453 0.828616H38.1033L37.4377 5.80005Z" fill="#333333"/>
</svg>
