<svg width="49" height="47" viewBox="0 0 49 47" fill="none" xmlns="http://www.w3.org/2000/svg">
<path d="M39.5566 9H34.1131H16.1092H10.6658H6L6.77922 14.8124C6.3779 14.8455 6.05912 15.1927 6.05912 15.6286V26.4C6.05912 26.8573 6.40669 27.2285 6.83672 27.2285C7.26674 27.2285 7.61431 26.8573 7.61431 26.4V21.0407L9.17585 32.6855C9.7046 35.9137 11.6868 38 14.2243 38H18.8901H24.3336H24.7224H25.5H25.8888H31.3323H36.7758C39.5519 38 41.2005 35.2715 41.8265 32.673L43.3857 21.0432V26.3999C43.3857 26.8572 43.7333 27.2284 44.1633 27.2284C44.5933 27.2284 44.9409 26.8572 44.9409 26.3999V15.6286C44.9409 15.1927 44.622 14.8455 44.2209 14.8124L45 9H39.5566ZM34.0019 9.82862H38.6599L37.9935 14.8001H33.3347L34.0019 9.82862ZM37.8831 15.6286L37.3278 19.7714H32.669L33.2242 15.6286H37.8831ZM25.5 24.7429V20.6H29.3881H31.774L31.2187 24.7428H25.5V24.7429ZM31.1075 25.5715L30.5523 29.7143H25.5V25.5715H31.1075ZM31.1145 19.7715C31.4878 19.3307 31.7211 18.7532 31.7211 18.1143V15.6286H32.4396L31.8844 19.7714H31.1145V19.7715ZM31.8914 25.5715H36.551L35.9958 29.7143H31.3362L31.8914 25.5715ZM32.0026 24.7429L32.5578 20.6001H37.2175L36.6622 24.7429H32.0026ZM25.5 9.82862H33.2172L32.5508 14.8001H31.7211V13.9715C31.7211 12.6011 30.6744 11.4858 29.3881 11.4858H25.5V9.82862ZM24.7224 9.82862V11.4858H20.8343C19.5481 11.4858 18.5013 12.601 18.5013 13.9715V14.8001H17.6716L17.0052 9.82862H24.7224ZM18.3309 25.5715L18.8862 29.7143H14.2282L13.6729 25.5715H18.3309ZM13.5617 24.7429L13.0064 20.6001H17.6645L18.2198 24.7429H13.5617ZM17.7828 15.6286H18.5013V18.1143C18.5013 18.7532 18.7354 19.3307 19.1079 19.7715H18.338L17.7828 15.6286ZM17.5533 19.7715H12.8953L12.3401 15.6287H16.9981L17.5533 19.7715ZM16.2205 9.82862L16.8869 14.8001H12.2288L11.5624 9.82862H16.2205ZM7.56227 14.8001L6.89584 9.82862H10.7771L11.4435 14.8001H7.56227ZM7.67343 15.6286H11.5539L12.1091 19.7714H8.2287L7.67343 15.6286ZM8.34068 20.6H12.2211L12.7764 24.7428H8.89586L8.34068 20.6ZM9.00711 25.5715H12.8875L13.4428 29.7143H9.56237L9.00711 25.5715ZM14.2243 37.1715C11.627 37.1715 10.3089 34.7802 9.94336 32.5556L9.67354 30.5429H13.554L13.8409 32.6856C14.1722 34.7049 15.0711 36.2767 16.3192 37.1715H14.2243ZM18.8901 37.1715C16.2928 37.1715 14.9747 34.7802 14.6092 32.5556L14.3394 30.5429H18.9975L19.2844 32.6856C19.6157 34.7049 20.5146 36.2767 21.7627 37.1715H18.8901ZM24.7224 37.1715H24.3336C21.7363 37.1715 20.4182 34.7802 20.0527 32.5556L19.7829 30.5429H24.7224V37.1715ZM24.7224 29.7144H19.6717L19.1164 25.5715H24.7224V29.7144ZM24.7224 24.7429H19.0052L18.4499 20.6001H20.8342H24.7223V24.7429H24.7224ZM24.7224 18.9429H20.8343C20.405 18.9429 20.0567 18.5708 20.0567 18.1143V15.6286V14.8001V13.9715C20.0567 13.515 20.405 13.143 20.8343 13.143H24.0435C24.0233 13.2316 24.0093 13.3236 24.0093 13.419C24.0093 13.921 24.3064 14.3461 24.7224 14.5135C24.8437 14.5624 24.9736 14.5922 25.1112 14.5922C25.2488 14.5922 25.3787 14.5624 25.5 14.5135C25.916 14.3453 26.2131 13.9202 26.2131 13.419C26.2131 13.3237 26.1991 13.2317 26.1789 13.143H29.3882C29.8174 13.143 30.1658 13.515 30.1658 13.9715V14.8001V15.6286V18.1143C30.1658 18.5709 29.8174 18.9429 29.3882 18.9429H25.5001H24.7224ZM25.5 37.1715V30.5429H30.4419L30.1783 32.5108C29.6332 34.7636 28.2202 37.1715 25.8889 37.1715H25.5ZM28.3167 37.1715C29.6589 36.1664 30.5251 34.3941 30.9396 32.6731L31.225 30.5429H35.8846L35.621 32.5108C35.0767 34.7636 33.6637 37.1715 31.3324 37.1715H28.3167ZM41.0652 32.5108C40.52 34.7636 39.107 37.1715 36.7757 37.1715H33.7601C35.1023 36.1664 35.9685 34.3941 36.383 32.6731L36.6684 30.5429H41.328L41.0652 32.5108ZM41.4393 29.7144H36.7796L37.3348 25.5715H41.9944L41.4393 29.7144ZM42.1056 24.7429H37.446L38.0012 20.6001H42.6609L42.1056 24.7429ZM42.7721 19.7715H38.1133L38.6686 15.6287H43.3274L42.7721 19.7715ZM43.4377 14.8001H38.7789L39.4453 9.82862H44.1033L43.4377 14.8001Z" fill="#333333"/>
<rect y="0.707031" width="1" height="64" transform="rotate(-45 0 0.707031)" fill="#CCCCCC"/>
<rect x="48.2549" y="1" width="1" height="64" transform="rotate(45 48.2549 1)" fill="#CCCCCC"/>
</svg>
