<svg width="49" height="47" viewBox="0 0 49 47" fill="none" xmlns="http://www.w3.org/2000/svg">
<path d="M42.4152 24.0005C42.4152 17.1977 43.0041 11.6431 43.7501 11.1872C43.7445 11.148 43.7393 11.146 43.7337 11.1431C39.8927 10.286 32.7196 9.71436 24.5 9.71436C16.2808 9.71436 9.10736 10.286 5.2664 11.1431C5.26083 11.1431 5.25558 11.148 5.25 11.1872C5.99601 11.6431 6.58489 17.1977 6.58489 24.0005C6.58489 30.7052 6.01176 36.2045 5.28281 36.7987C5.29691 36.8268 5.32152 36.8481 5.35104 36.8582H5.36679C5.37991 36.851 5.39566 36.851 5.40911 36.8582C9.22284 37.7153 16.3444 38.2866 24.505 38.2866C32.6658 38.2866 39.7874 37.7153 43.6011 36.8582C43.6143 36.851 43.6303 36.851 43.6435 36.8582H43.6579C43.6864 36.8478 43.7101 36.8275 43.7245 36.801C42.9883 36.2294 42.4152 30.7215 42.4152 24.0005Z" fill="#333333"/>
<path d="M5.15142 36.1436L5.14453 36.8581C5.19341 36.8535 5.23967 36.8326 5.27543 36.7986C5.20129 36.5883 5.16192 36.3669 5.15864 36.1436H5.15142Z" fill="#333333"/>
<path d="M6.58503 24.0003C6.58503 17.1975 5.99616 11.6429 5.25015 11.187C5.24162 11.2521 5.2321 11.4186 5.22357 11.8571H5.20914C5.1619 11.3509 5.11826 11.2266 5.07234 11.1792C4.31779 11.5523 3.71875 17.1432 3.71875 24.0003C3.71875 31.1014 4.36372 36.8581 5.15173 36.8581L5.15894 36.1436H5.16616C5.16911 36.3669 5.20848 36.588 5.28295 36.7986C6.01191 36.2044 6.58503 30.705 6.58503 24.0003ZM4.29187 34.2436C4.33846 34.2276 4.38668 34.2155 4.43524 34.208C4.38668 34.2155 4.33846 34.2276 4.29187 34.2436ZM4.29187 13.7574C4.33846 13.7734 4.38668 13.7855 4.43524 13.793C4.38668 13.7852 4.33846 13.7734 4.29187 13.7574Z" fill="white"/>
<path d="M5.2235 11.8573C5.23203 11.4187 5.24155 11.2523 5.25008 11.1875C5.22153 11.1646 5.18774 11.1493 5.15166 11.1431C5.12443 11.1431 5.09884 11.166 5.07227 11.1797C5.11819 11.2268 5.16183 11.351 5.20907 11.8573H5.2235Z" fill="#333333"/>
<path d="M43.791 11.8573C43.8382 11.351 43.8819 11.2268 43.9278 11.1797C43.9012 11.166 43.8753 11.1431 43.8481 11.1431C43.8123 11.1493 43.7785 11.1646 43.75 11.1875C43.7585 11.2523 43.768 11.4187 43.7766 11.8573H43.791Z" fill="#333333"/>
<path d="M43.9277 11.1792C43.8818 11.2266 43.8382 11.3509 43.7909 11.8571H43.7765C43.768 11.4186 43.7585 11.2521 43.7499 11.187C43.0039 11.6429 42.415 17.1975 42.415 24.0003C42.415 30.7214 42.9882 36.2292 43.7227 36.8008C43.7988 36.5899 43.8385 36.3679 43.8411 36.1436H43.8483L43.8552 36.8545C44.6436 36.8201 45.2813 31.0798 45.2813 24.0003C45.2813 17.1432 44.6823 11.5523 43.9277 11.1792ZM44.7082 13.7574C44.6616 13.7734 44.6134 13.7855 44.5648 13.793C44.6134 13.7852 44.6616 13.7734 44.7082 13.7574ZM44.7082 34.2436C44.6616 34.2276 44.6134 34.2155 44.5648 34.208C44.6134 34.2155 44.6616 34.2276 44.7082 34.2436Z" fill="white"/>
<path d="M43.8338 36.1436C43.8315 36.3679 43.7914 36.5899 43.7153 36.8008C43.7498 36.8332 43.7937 36.8532 43.841 36.8581H43.8479L43.841 36.1436H43.8338Z" fill="#333333"/>
<path d="M45.5737 14.8303C45.3116 12.4729 45.0078 11.3371 44.6158 10.8195C44.5013 10.5997 44.2782 10.4568 44.0302 10.4444C43.9702 10.4343 43.9092 10.429 43.8485 10.4287C43.8376 10.4287 43.8275 10.4287 43.8176 10.4287C39.8044 9.54578 32.4178 9 24.5 9C16.5822 9 9.19392 9.54774 5.18172 10.4287H5.15154C5.0879 10.429 5.02392 10.4349 4.96094 10.4464C4.71948 10.4653 4.50395 10.6043 4.38781 10.8165C3.99446 11.3329 3.69068 12.4699 3.42757 14.8303C3.12477 17.8774 2.98272 20.9385 3.00175 24.0003C2.98239 27.0625 3.12379 30.1236 3.42626 33.1707C3.83831 36.8708 4.35041 37.5723 5.15154 37.5723C5.19944 37.5726 5.24733 37.5697 5.2949 37.5638C5.30573 37.5638 5.3159 37.571 5.3264 37.5716C9.36813 38.4666 16.5278 39 24.5072 39C32.3646 39 39.6991 38.4529 43.6841 37.5716C43.6949 37.5716 43.7058 37.5644 43.7172 37.5638C43.7605 37.569 43.8045 37.5719 43.8485 37.5723C44.6496 37.5723 45.1617 36.8708 45.5737 33.1707C45.8759 30.1236 46.0176 27.0625 45.9983 24.0003C46.0176 20.9385 45.8759 17.8774 45.5737 14.8303ZM43.8485 35.0994C43.3019 31.4258 43.0621 27.7135 43.1316 24.0003C43.0621 20.2874 43.3019 16.5749 43.8485 12.9016C44.3947 16.5749 44.6345 20.2874 44.565 24.0003C44.6345 27.7135 44.3947 31.4258 43.8485 35.0994ZM4.43505 24.0003C4.3655 20.2874 4.60532 16.5749 5.15154 12.9016C5.69809 16.5749 5.93791 20.2874 5.86836 24.0003C5.93791 27.7135 5.69809 31.4258 5.15154 35.0994C4.60532 31.4258 4.3655 27.7135 4.43505 24.0003ZM6.32108 36.3159C6.60092 35.2868 6.78693 34.2351 6.87715 33.1727C7.17962 30.1249 7.32102 27.0631 7.30166 24.0003C7.32102 20.9382 7.17962 17.8774 6.87715 14.83C6.78726 13.7587 6.59862 12.6978 6.31321 11.6606C10.373 10.8963 17.1908 10.4284 24.5 10.4284C31.8092 10.4284 38.627 10.8963 42.6868 11.6606C42.4014 12.6978 42.2127 13.7587 42.1229 14.83C41.8207 17.8774 41.679 20.9382 41.6983 24.0003C41.679 27.0625 41.8207 30.1233 42.1229 33.1707C42.2131 34.2341 42.3994 35.2871 42.6796 36.3172C38.6651 37.0952 31.8322 37.5723 24.5036 37.5723C17.175 37.5723 10.3349 37.0952 6.32108 36.3159Z" fill="#333333"/>
<rect y="0.707031" width="1" height="64" transform="rotate(-45 0 0.707031)" fill="#CCCCCC"/>
<rect x="48.2549" y="1" width="1" height="64" transform="rotate(45 48.2549 1)" fill="#CCCCCC"/>
</svg>
