<svg width="43" height="30" viewBox="0 0 43 30" fill="none" xmlns="http://www.w3.org/2000/svg">
<path d="M39.4152 15.0005C39.4152 8.19768 40.0041 2.64307 40.7501 2.18721C40.7445 2.14797 40.7393 2.14601 40.7337 2.14307C36.8927 1.28597 29.7196 0.714355 21.5 0.714355C13.2808 0.714355 6.10736 1.28597 2.2664 2.14307C2.26083 2.14307 2.25558 2.14797 2.25 2.18721C2.99601 2.64307 3.58489 8.19768 3.58489 15.0005C3.58489 21.7052 3.01176 27.2045 2.28281 27.7987C2.29691 27.8268 2.32152 27.8481 2.35104 27.8582H2.36679C2.37991 27.851 2.39566 27.851 2.40911 27.8582C6.22284 28.7153 13.3444 29.2866 21.505 29.2866C29.6658 29.2866 36.7874 28.7153 40.6011 27.8582C40.6143 27.851 40.6303 27.851 40.6435 27.8582H40.6579C40.6864 27.8478 40.7101 27.8275 40.7245 27.801C39.9883 27.2294 39.4152 21.7215 39.4152 15.0005Z" fill="#333333"/>
<path d="M2.15142 27.1436L2.14453 27.8581C2.19341 27.8535 2.23967 27.8326 2.27543 27.7986C2.20129 27.5883 2.16192 27.3669 2.15864 27.1436H2.15142Z" fill="#333333"/>
<path d="M3.58503 15.0003C3.58503 8.19751 2.99616 2.6429 2.25015 2.18705C2.24162 2.25212 2.2321 2.41857 2.22357 2.85709H2.20914C2.1619 2.35088 2.11826 2.22662 2.07234 2.1792C1.31779 2.55232 0.71875 8.14323 0.71875 15.0003C0.71875 22.1014 1.36372 27.8581 2.15173 27.8581L2.15894 27.1436H2.16616C2.16911 27.3669 2.20848 27.588 2.28295 27.7986C3.01191 27.2044 3.58503 21.705 3.58503 15.0003ZM1.29187 25.2436C1.33846 25.2276 1.38668 25.2155 1.43524 25.208C1.38668 25.2155 1.33846 25.2276 1.29187 25.2436ZM1.29187 4.75735C1.33846 4.77338 1.38668 4.78548 1.43524 4.793C1.38668 4.78515 1.33846 4.77338 1.29187 4.75735Z" fill="white"/>
<path d="M2.2235 2.85726C2.23203 2.41874 2.24155 2.25229 2.25008 2.18754C2.22153 2.16465 2.18774 2.14928 2.15166 2.14307C2.12443 2.14307 2.09884 2.16596 2.07227 2.17969C2.11819 2.22678 2.16183 2.35105 2.20907 2.85726H2.2235Z" fill="#333333"/>
<path d="M40.791 2.85726C40.8382 2.35105 40.8819 2.22678 40.9278 2.17969C40.9012 2.16596 40.8753 2.14307 40.8481 2.14307C40.8123 2.14928 40.7785 2.16465 40.75 2.18754C40.7585 2.25229 40.768 2.41874 40.7766 2.85726H40.791Z" fill="#333333"/>
<path d="M40.9277 2.1792C40.8818 2.22662 40.8382 2.35088 40.7909 2.85709H40.7765C40.768 2.41857 40.7585 2.25212 40.7499 2.18705C40.0039 2.6429 39.415 8.19751 39.415 15.0003C39.415 21.7214 39.9882 27.2292 40.7227 27.8008C40.7988 27.5899 40.8385 27.3679 40.8411 27.1436H40.8483L40.8552 27.8545C41.6436 27.8201 42.2813 22.0798 42.2813 15.0003C42.2813 8.14323 41.6823 2.55232 40.9277 2.1792ZM41.7082 4.75735C41.6616 4.77338 41.6134 4.78548 41.5648 4.793C41.6134 4.78515 41.6616 4.77338 41.7082 4.75735ZM41.7082 25.2436C41.6616 25.2276 41.6134 25.2155 41.5648 25.208C41.6134 25.2155 41.6616 25.2276 41.7082 25.2436Z" fill="white"/>
<path d="M40.8338 27.1436C40.8315 27.3679 40.7914 27.5899 40.7153 27.8008C40.7498 27.8332 40.7937 27.8532 40.841 27.8581H40.8479L40.841 27.1436H40.8338Z" fill="#333333"/>
<path d="M42.5737 5.83028C42.3116 3.47286 42.0078 2.33715 41.6158 1.81949C41.5013 1.59974 41.2782 1.45683 41.0302 1.44441C40.9702 1.43427 40.9092 1.42904 40.8485 1.42871C40.8376 1.42871 40.8275 1.42871 40.8176 1.42871C36.8044 0.545782 29.4178 0 21.5 0C13.5822 0 6.19392 0.547744 2.18172 1.42871H2.15154C2.0879 1.42904 2.02392 1.43492 1.96094 1.44637C1.71948 1.46534 1.50395 1.60432 1.38781 1.81655C0.994464 2.3329 0.690679 3.46991 0.427573 5.83028C0.124771 8.87737 -0.0172797 11.9385 0.00174787 15.0003C-0.0176078 18.0625 0.123787 21.1236 0.426261 24.1707C0.838307 27.8708 1.35041 28.5723 2.15154 28.5723C2.19944 28.5726 2.24733 28.5697 2.2949 28.5638C2.30573 28.5638 2.3159 28.571 2.3264 28.5716C6.36813 29.4666 13.5278 30 21.5072 30C29.3646 30 36.6991 29.4529 40.6841 28.5716C40.6949 28.5716 40.7058 28.5644 40.7172 28.5638C40.7605 28.569 40.8045 28.5719 40.8485 28.5723C41.6496 28.5723 42.1617 27.8708 42.5737 24.1707C42.8759 21.1236 43.0176 18.0625 42.9983 15.0003C43.0176 11.9385 42.8759 8.87737 42.5737 5.83028ZM40.8485 26.0994C40.3019 22.4258 40.0621 18.7135 40.1316 15.0003C40.0621 11.2874 40.3019 7.57489 40.8485 3.90157C41.3947 7.57489 41.6345 11.2874 41.565 15.0003C41.6345 18.7135 41.3947 22.4258 40.8485 26.0994ZM1.43505 15.0003C1.3655 11.2874 1.60532 7.57489 2.15154 3.90157C2.69809 7.57489 2.93791 11.2874 2.86836 15.0003C2.93791 18.7135 2.69809 22.4258 2.15154 26.0994C1.60532 22.4258 1.3655 18.7135 1.43505 15.0003ZM3.32108 27.3159C3.60092 26.2868 3.78693 25.2351 3.87715 24.1727C4.17962 21.1249 4.32102 18.0631 4.30166 15.0003C4.32102 11.9382 4.17962 8.87737 3.87715 5.82995C3.78726 4.75867 3.59862 3.69784 3.31321 2.66056C7.37298 1.89634 14.1908 1.42838 21.5 1.42838C28.8092 1.42838 35.627 1.89634 39.6868 2.66056C39.4014 3.69784 39.2127 4.75867 39.1229 5.82995C38.8207 8.87737 38.679 11.9382 38.6983 15.0003C38.679 18.0625 38.8207 21.1233 39.1229 24.1707C39.2131 25.2341 39.3994 26.2871 39.6796 27.3172C35.6651 28.0952 28.8322 28.5723 21.5036 28.5723C14.175 28.5723 7.33493 28.0952 3.32108 27.3159Z" fill="#333333"/>
</svg>
