<svg width="41" height="29" viewBox="0 0 41 29" fill="none" xmlns="http://www.w3.org/2000/svg">
<path d="M0 27.6143C0 26.5097 0.895431 25.6143 2 25.6143H16C17.1046 25.6143 18 26.5097 18 27.6143V29.0002H0V27.6143Z" fill="#333333"/>
<path d="M0 1.38623C0 2.4908 0.895431 3.38623 2 3.38623H16C17.1046 3.38623 18 2.4908 18 1.38623V0.000238657H0V1.38623Z" fill="#333333"/>
<rect width="14.9002" height="2.22963" transform="matrix(0.947914 -0.318525 0.208947 0.977927 1.65967 25.9385)" fill="#333333"/>
<rect width="14.9002" height="2.22963" transform="matrix(0.947914 0.318525 -0.208947 0.977927 2.12549 15.8013)" fill="#333333"/>
<rect width="14.9002" height="2.22963" transform="matrix(0.947914 -0.318525 0.208947 0.977927 1.65967 15.7803)" fill="#333333"/>
<rect width="14.9002" height="2.22963" transform="matrix(0.947914 -0.318525 0.208947 0.977927 1.65967 5.875)" fill="#333333"/>
<rect width="14.9002" height="2.22963" transform="matrix(0.947914 0.318525 -0.208947 0.977927 2.12549 5.64355)" fill="#333333"/>
<path d="M23 27.6143C23 26.5097 23.8954 25.6143 25 25.6143H39C40.1046 25.6143 41 26.5097 41 27.6143V29.0002H23V27.6143Z" fill="#333333"/>
<path d="M23 1.38623C23 2.4908 23.8954 3.38623 25 3.38623H39C40.1046 3.38623 41 2.4908 41 1.38623V0.000238657H23V1.38623Z" fill="#333333"/>
<rect width="14.9002" height="2.22963" transform="matrix(0.947914 -0.318525 0.208947 0.977927 24.6597 25.9385)" fill="#333333"/>
<rect width="14.9002" height="2.22963" transform="matrix(0.947914 0.318525 -0.208947 0.977927 25.1255 15.8013)" fill="#333333"/>
<rect width="14.9002" height="2.22963" transform="matrix(0.947914 -0.318525 0.208947 0.977927 24.6597 15.7803)" fill="#333333"/>
<rect width="14.9002" height="2.22963" transform="matrix(0.947914 -0.318525 0.208947 0.977927 24.6597 5.875)" fill="#333333"/>
<rect width="14.9002" height="2.22963" transform="matrix(0.947914 0.318525 -0.208947 0.977927 25.1255 5.64355)" fill="#333333"/>
</svg>
