<svg width="47" height="62" viewBox="0 0 47 62" fill="none" xmlns="http://www.w3.org/2000/svg">
<path d="M4 46V54.396C4 56.6828 5.59779 58.5366 7.56867 58.5366H8.1099V60.5715C8.1099 61.3605 8.66117 62 9.34118 62C10.0211 62 10.5725 61.3604 10.5725 60.5715V58.5366H36.4276V60.5715C36.4276 61.3605 36.9788 62 37.6588 62C38.3387 62 38.8901 61.3605 38.8901 60.5715V58.5366H39.4313C41.4022 58.5366 43 56.6827 43 54.3958V46H4ZM25.4083 53.6793H21.5916C20.9117 53.6793 20.3603 53.0396 20.3603 52.2508C20.3603 51.4619 20.9116 50.8221 21.5916 50.8221H25.4083C26.0882 50.8221 26.6396 51.4617 26.6396 52.2508C26.6396 53.0396 26.0883 53.6793 25.4083 53.6793Z" fill="#333333"/>
<rect x="19.8643" y="49" width="7.9322" height="5" fill="#333333"/>
<path d="M43.179 3.25486V1.12755H3.82096V3.25486L0 1V47L7.54388 43.8086V5.45202L6.6784 4.94133V4.19649H40.3216V4.94133L39.4562 5.45202V43.8086L47 47V1L43.179 3.25486Z" fill="#333333"/>
<path d="M3 2.5V0L44.3 0.5L43.2927 3H4.00732L3 2.5Z" fill="white"/>
<path d="M4 3C4 1.34315 5.34315 0 7 0H40C41.6569 0 43 1.34315 43 3H4Z" fill="#333333"/>
</svg>
