<svg width="39" height="66" viewBox="0 0 39 66" fill="none" xmlns="http://www.w3.org/2000/svg">
<path d="M19 47.9999V0H3.71152C1.66175 0 0 1.82606 0 4.07897V48H19V47.9999ZM12.517 27.123H13.891C14.5981 27.123 15.1715 27.7531 15.1715 28.5304C15.1715 29.3075 14.5983 29.9377 13.891 29.9377H12.517C11.8099 29.9377 11.2364 29.3077 11.2364 28.5304C11.2364 27.7531 11.8097 27.123 12.517 27.123Z" fill="#333333"/>
<path d="M0 50V58.396C0 60.6828 1.59779 62.5366 3.56867 62.5366H4.1099V64.5715C4.1099 65.3605 4.66117 66 5.34118 66C6.02107 66 6.57245 65.3604 6.57245 64.5715V62.5366H32.4276V64.5715C32.4276 65.3605 32.9788 66 33.6588 66C34.3387 66 34.8901 65.3605 34.8901 64.5715V62.5366H35.4313C37.4022 62.5366 39 60.6827 39 58.3958V50H0ZM21.4083 57.6793H17.5916C16.9117 57.6793 16.3603 57.0396 16.3603 56.2508C16.3603 55.4619 16.9116 54.8221 17.5916 54.8221H21.4083C22.0882 54.8221 22.6396 55.4617 22.6396 56.2508C22.6396 57.0396 22.0883 57.6793 21.4083 57.6793Z" fill="#333333"/>
<path d="M21 48H39V4.07884C39 1.82606 37.4257 0 35.4838 0H21V48ZM25.8401 27.1231H27.1418C27.8117 27.1231 28.355 27.7532 28.355 28.5305C28.355 29.3078 27.8118 29.9377 27.1418 29.9377H25.8401C25.1702 29.9377 24.6269 29.3078 24.6269 28.5305C24.6269 27.7532 25.1702 27.1231 25.8401 27.1231Z" fill="#333333"/>
<rect x="15.8643" y="53" width="7.9322" height="5" fill="#333333"/>
<rect x="23" y="5" width="14" height="34" fill="white"/>
<rect x="23" y="27" width="4" height="3" rx="1.5" fill="#333333"/>
</svg>
