<svg width="36" height="43" viewBox="0 0 36 43" fill="none" xmlns="http://www.w3.org/2000/svg">
<path d="M31.1538 0H4.84615C2.17462 0 0 2.17851 0 4.85484V38.1452C0 40.8215 2.17462 43 4.84615 43H31.1538C33.8254 43 36 40.8215 36 38.1452V4.85484C36 2.17851 33.8254 0 31.1538 0ZM31.1538 9.01613C32.8278 9.01613 34.227 10.2132 34.5461 11.7971C33.6712 10.9366 32.4742 10.4032 31.1538 10.4032H4.84615C3.52577 10.4032 2.32876 10.9366 1.45391 11.7971C1.77302 10.2132 3.17218 9.01613 4.84615 9.01613H9V7.62903H4.84615C3.52577 7.62903 2.32876 8.1624 1.45391 9.0229C1.77302 7.43905 3.17218 6.24194 4.84615 6.24194H31.1538C32.8278 6.24194 34.227 7.43905 34.5461 9.0229C33.6712 8.1624 32.4742 7.62903 31.1538 7.62903H10.3846V9.01613H31.1538ZM31.1538 25.6613C32.8278 25.6613 34.227 26.8584 34.5461 28.4423C33.6712 27.5818 32.4742 27.0484 31.1538 27.0484H4.84615C3.52577 27.0484 2.32876 27.5818 1.45391 28.4423C1.77302 26.8584 3.17218 25.6613 4.84615 25.6613H26.3077V24.2742H4.84615C3.52577 24.2742 2.32876 24.8076 1.45391 25.6681C1.77302 24.0842 3.17218 22.8871 4.84615 22.8871H31.1538C32.8278 22.8871 34.227 24.0842 34.5461 25.6681C33.6712 24.8076 32.4742 24.2742 31.1538 24.2742H27.6923V25.6613H31.1538ZM34.6154 34.7502C33.7355 33.8501 32.5087 33.2903 31.1538 33.2903H9.69231C8.16504 33.2903 6.92308 34.5345 6.92308 36.0645C6.92308 37.5945 8.16504 38.8387 9.69231 38.8387H31.8462V37.4516H9.69231C8.92867 37.4516 8.30769 36.8295 8.30769 36.0645C8.30769 35.2995 8.92867 34.6774 9.69231 34.6774H31.1538C33.0624 34.6774 34.6154 36.2332 34.6154 38.1452C34.6154 40.0572 33.0624 41.6129 31.1538 41.6129H4.84615C2.93758 41.6129 1.38462 40.0572 1.38462 38.1452V31.9032C1.38462 29.9912 2.93758 28.4355 4.84615 28.4355H31.1538C33.0624 28.4355 34.6154 29.9912 34.6154 31.9032V34.7502ZM34.6154 22.964C33.7348 22.0618 32.5094 21.5 31.1538 21.5H4.84615C3.49061 21.5 2.26521 22.0618 1.38462 22.964V15.2581C1.38462 13.3461 2.93758 11.7903 4.84615 11.7903H31.1538C33.0624 11.7903 34.6154 13.3461 34.6154 15.2581V22.964ZM31.1538 4.85484H4.84615C3.49061 4.85484 2.26521 5.41665 1.38462 6.31881V4.85484C1.38462 2.94284 2.93758 1.3871 4.84615 1.3871H31.1538C33.0624 1.3871 34.6154 2.94284 34.6154 4.85484V6.31881C33.7348 5.41665 32.5094 4.85484 31.1538 4.85484Z" fill="#333333"/>
</svg>
