<svg width="36" height="46" viewBox="0 0 36 46" fill="none" xmlns="http://www.w3.org/2000/svg">
<path d="M20.6354 0.500977C21.058 2.17124 23.2554 5.42825 28.6646 5.0942" stroke="black"/>
<path d="M28.6645 5.09424L30.7775 10.105C27.9602 15.1158 24.5232 26.3066 33.313 30.9833" stroke="black"/>
<path d="M33.313 30.9834L29.9323 37.2469C26.8333 38.2212 20.0438 41.0885 17.6773 44.7631" stroke="black"/>
<path d="M28.5569 4.58224L30.5807 9.63386" stroke="black"/>
<rect width="0.845173" height="1.67026" transform="matrix(-1 0 0 1 29.0869 3.00635)" fill="white"/>
<path d="M32.4986 30.5099L34.1275 31.4567" stroke="black"/>
<rect width="1.04971" height="1.67469" transform="matrix(-0.885725 -0.464211 -0.472952 0.881088 35 30.9565)" fill="white"/>
<rect width="1.13622" height="0.616905" transform="matrix(-0.999997 -0.00248118 -0.00254121 0.999997 18.0381 44.3828)" fill="black"/>
<rect x="13.9419" width="7.18397" height="0.835132" fill="black"/>
<path d="M14.3646 0.500977C13.942 2.17124 11.7446 5.42825 6.33545 5.0942" stroke="black"/>
<path d="M6.33547 5.09424L4.22253 10.105C7.03978 15.1158 10.4768 26.3066 1.68701 30.9833" stroke="black"/>
<path d="M1.68701 30.9834L5.06771 37.2469C8.16667 38.2212 14.9562 41.0885 17.3227 44.7631" stroke="black"/>
<path d="M6.44314 4.58224L4.41927 9.63386" stroke="black"/>
<rect x="5.91309" y="3.00635" width="0.845173" height="1.67026" fill="white"/>
<path d="M2.50137 30.5099L0.872454 31.4567" stroke="black"/>
<rect width="1.04971" height="1.67469" transform="matrix(0.885725 -0.464211 0.472952 0.881088 0 30.9565)" fill="white"/>
<rect width="1.13622" height="0.616905" transform="matrix(0.999997 -0.00248118 0.00254121 0.999997 16.9619 44.3828)" fill="black"/>
<circle cx="28.5" cy="32.5" r="7" fill="white" stroke="#333333"/>
<path d="M30.9416 28C30.9416 28 30.139 28.7982 29.2709 29.1201C22.8425 31.5035 25.5536 36.1481 25.6421 36.1634C25.6421 36.1634 26.0026 35.5199 26.4895 35.1529C29.5794 32.8244 30.2074 30.1443 30.2074 30.1443C30.2074 30.1443 29.5141 33.3694 26.7651 35.3761C26.158 35.8191 25.7469 36.9098 25.5728 38C25.5728 38 26.0032 37.8218 26.1883 37.7735C26.2604 37.2907 26.4113 36.8285 26.6664 36.4156C30.5084 36.8844 31.7667 33.7111 31.9311 32.6045C32.3191 29.9911 30.9416 28 30.9416 28Z" fill="#333333"/>
</svg>
