<svg width="39" height="62" viewBox="0 0 39 62" fill="none" xmlns="http://www.w3.org/2000/svg">
<path d="M0 3C0 1.34315 1.34315 0 3 0H36C37.6569 0 39 1.34315 39 3H0Z" fill="#333333"/>
<rect y="3" width="19" height="41" fill="#333333"/>
<rect x="13" y="4" width="19" height="39" fill="#C4C4C4"/>
<rect x="27" y="25" width="4" height="3" rx="1.5" fill="#FFFBFB"/>
<path d="M0 46V54.396C0 56.6828 1.59779 58.5366 3.56867 58.5366H4.1099V60.5715C4.1099 61.3605 4.66117 62 5.34118 62C6.02107 62 6.57245 61.3604 6.57245 60.5715V58.5366H32.4276V60.5715C32.4276 61.3605 32.9788 62 33.6588 62C34.3387 62 34.8901 61.3605 34.8901 60.5715V58.5366H35.4313C37.4022 58.5366 39 56.6827 39 54.3958V46H0ZM21.4083 53.6793H17.5916C16.9117 53.6793 16.3603 53.0396 16.3603 52.2508C16.3603 51.4619 16.9116 50.8221 17.5916 50.8221H21.4083C22.0882 50.8221 22.6396 51.4617 22.6396 52.2508C22.6396 53.0396 22.0883 53.6793 21.4083 53.6793Z" fill="#333333"/>
<rect x="15.8643" y="49" width="7.9322" height="5" fill="#333333"/>
</svg>
