<svg width="32" height="42" viewBox="0 0 32 42" fill="none" xmlns="http://www.w3.org/2000/svg">
<path d="M18.5906 1.30078C18.9694 2.81593 20.9391 5.77048 25.7876 5.46745" stroke="#333333"/>
<path d="M25.7874 5.46875L27.6814 10.0142C25.1561 14.5597 22.0753 24.7112 29.9541 28.9536" stroke="#333333"/>
<path d="M29.9541 28.9531L26.9238 34.6349C24.146 35.5188 18.0602 38.1198 15.9389 41.4531" stroke="#333333"/>
<path d="M25.691 5.00363L27.5051 9.58612" stroke="#333333"/>
<rect width="0.757576" height="1.51515" transform="matrix(-1 0 0 1 26.166 3.57422)" fill="white"/>
<path d="M29.2242 28.5258L30.6843 29.3847" stroke="#333333"/>
<rect width="0.943364" height="1.51515" transform="matrix(-0.883425 -0.468573 -0.468573 0.883425 31.4663 28.9297)" fill="white"/>
<rect width="1.01846" height="0.559615" transform="matrix(-0.999997 -0.00251101 -0.00251101 0.999997 16.2622 41.1094)" fill="black"/>
<rect x="12.5908" y="0.847656" width="6.43939" height="0.757576" fill="black"/>
<path d="M12.9694 1.30078C12.5906 2.81593 10.6209 5.77048 5.77246 5.46745" stroke="#333333"/>
<path d="M5.77262 5.46875L3.87868 10.0142C6.40394 14.5597 9.48474 24.7112 1.60596 28.9536" stroke="#333333"/>
<path d="M1.60596 28.9531L4.63626 34.6349C7.41404 35.5188 13.4999 38.1198 15.6211 41.4531" stroke="#333333"/>
<path d="M5.86902 5.00363L4.05491 9.58612" stroke="#333333"/>
<rect x="5.39404" y="3.57422" width="0.757576" height="1.51515" fill="white"/>
<path d="M2.33586 28.5258L0.87577 29.3847" stroke="#333333"/>
<rect x="0.09375" y="28.9297" width="0.943364" height="1.51515" transform="rotate(-27.9417 0.09375 28.9297)" fill="white"/>
<rect x="15.2979" y="41.1094" width="1.01846" height="0.559615" transform="rotate(-0.143871 15.2979 41.1094)" fill="black"/>
</svg>
