<svg width="53" height="35" viewBox="0 0 53 35" fill="none" xmlns="http://www.w3.org/2000/svg">
<rect x="-0.5" y="0.5" width="26.6738" height="13.8539" rx="2.5" transform="matrix(-1 0 0 1 49.7915 5.95703)" stroke="#333333"/>
<rect width="18" height="30" rx="3" transform="matrix(-1 0 0 1 24 5)" fill="#333333"/>
<path d="M50.2915 0.886719H28.5375V4.81366C28.5375 6.19438 29.6568 7.31367 31.0375 7.31367H47.7915C49.1722 7.31367 50.2915 6.19438 50.2915 4.81367V0.886719Z" fill="white" stroke="#333333"/>
<path d="M28.1523 0.886719H6.39833V4.81366C6.39833 6.19438 7.51762 7.31367 8.89833 7.31367H25.6523C27.0331 7.31367 28.1523 6.19438 28.1523 4.81367V0.886719Z" fill="white" stroke="#333333"/>
<rect width="2.45989" height="19.1863" transform="matrix(-1 0 0 1 52.6362 0.386719)" fill="#333333"/>
<rect x="-0.5" y="0.5" width="5.14973" height="18.1863" transform="matrix(-1 0 0 1 5.51367 0.386719)" stroke="#333333"/>
</svg>
