<svg width="72" height="26" viewBox="0 0 72 26" fill="none" xmlns="http://www.w3.org/2000/svg">
<path d="M6.87074 0L3.354 8.66671H16.5418L13.025 0H12.5854H6.87074Z" fill="#333333"/>
<rect width="0.677367" height="15.3485" transform="matrix(0.935748 0.35267 -0.213151 0.977019 3.27148 10.4172)" fill="#333333"/>
<rect width="0.677367" height="15.3485" transform="matrix(0.935748 -0.35267 0.213151 0.977019 16.542 10.6562)" fill="#333333"/>
<rect width="0.664018" height="15.5363" transform="matrix(0.983364 -0.181647 0.106322 0.994332 13.3027 10.5139)" fill="#333333"/>
<rect width="0.664018" height="15.5363" transform="matrix(0.983364 0.181647 -0.106322 0.994332 7.0415 10.3933)" fill="#333333"/>
<rect x="9.94824" y="10.3999" width="0.659389" height="15.6001" fill="#333333"/>
<path d="M58.424 0L54.9072 8.66671H68.095L64.5783 0H64.1387H58.424Z" fill="#333333"/>
<rect width="0.677367" height="15.3485" transform="matrix(0.935748 0.35267 -0.213151 0.977019 54.8247 10.4172)" fill="#333333"/>
<rect width="0.677367" height="15.3485" transform="matrix(0.935748 -0.35267 0.213151 0.977019 68.0952 10.6562)" fill="#333333"/>
<rect width="0.664018" height="15.5363" transform="matrix(0.983364 -0.181647 0.106322 0.994332 64.856 10.5139)" fill="#333333"/>
<rect width="0.664018" height="15.5363" transform="matrix(0.983364 0.181647 -0.106322 0.994332 58.5947 10.3933)" fill="#333333"/>
<rect x="61.5015" y="10.3999" width="0.659389" height="15.6001" fill="#333333"/>
<path d="M32.6471 0L29.1304 8.66671H42.3181L38.8014 0H38.3618H32.6471Z" fill="#333333"/>
<rect width="0.677367" height="15.3485" transform="matrix(0.935748 0.35267 -0.213151 0.977019 29.0479 10.4172)" fill="#333333"/>
<rect width="0.677367" height="15.3485" transform="matrix(0.935748 -0.35267 0.213151 0.977019 42.3184 10.6562)" fill="#333333"/>
<rect width="0.664018" height="15.5363" transform="matrix(0.983364 -0.181647 0.106322 0.994332 39.0791 10.5139)" fill="#333333"/>
<rect width="0.664018" height="15.5363" transform="matrix(0.983364 0.181647 -0.106322 0.994332 32.8179 10.3933)" fill="#333333"/>
<rect x="35.7246" y="10.3999" width="0.659389" height="15.6001" fill="#333333"/>
</svg>
