<svg width="40" height="40" viewBox="0 0 40 40" fill="none" xmlns="http://www.w3.org/2000/svg">
<rect width="40" height="40" fill="#C4C4C4" fill-opacity="0.01"/>
<path d="M34.707 15.3047H16.0124C15.1399 15.3077 14.3039 15.6419 13.6868 16.2344C13.0697 16.8269 12.7213 17.6298 12.7178 18.468V29.835C12.7209 30.6735 13.069 31.4767 13.6862 32.0696C14.3034 32.6625 15.1396 32.9969 16.0124 32.9999H34.707C35.5796 32.9965 36.4154 32.6619 37.0322 32.069C37.649 31.4762 37.9969 30.6732 38 29.835V18.468C37.9991 17.6293 37.6519 16.8252 37.0345 16.2321C36.4172 15.6391 35.5801 15.3055 34.707 15.3047ZM36.2284 29.8853C36.2276 30.1891 36.1015 30.4802 35.8779 30.6951C35.6543 30.9099 35.3512 31.0309 35.035 31.0318H15.9753C15.6589 31.0309 15.3556 30.9099 15.1317 30.6951C14.9078 30.4804 14.7815 30.1893 14.7801 29.8853V21.8813H36.2268L36.2284 29.8853ZM36.2284 18.8674H14.7801V18.4322C14.7815 18.1283 14.9078 17.8372 15.1317 17.6224C15.3556 17.4077 15.6589 17.2867 15.9753 17.2858H35.0333C35.3496 17.2867 35.6526 17.4077 35.8762 17.6225C36.0998 17.8373 36.2259 18.1285 36.2268 18.4322L36.2284 18.8674Z" fill="#333333"/>
<path d="M15.7741 13.3513H27.3688L25.0022 8.76225C24.6141 8.01053 23.9316 7.43721 23.1044 7.16785C22.2771 6.89849 21.3724 6.95504 20.5884 7.32513L3.83786 15.2821C3.05312 15.6549 2.45467 16.3118 2.17411 17.1085C1.89356 17.9051 1.95388 18.7762 2.34181 19.5301L7.59909 29.7344C7.93812 30.3923 8.50434 30.9167 9.20109 31.2182C9.89784 31.5197 10.6819 31.5795 11.4195 31.3875C10.9634 30.6506 10.7228 29.809 10.723 28.9517V18.205C10.7279 16.9194 11.2616 15.6879 12.2078 14.7787C13.1539 13.8695 14.4358 13.3564 15.7741 13.3513Z" fill="#333333"/>
<path d="M18.1558 29.7985C18.4637 29.799 18.7681 29.735 19.0475 29.6107C19.327 29.4864 19.5748 29.305 19.7736 29.0791C20.0573 29.3982 20.4361 29.6261 20.8589 29.732C21.2816 29.8379 21.728 29.8169 22.1379 29.6716C22.5477 29.5263 22.9014 29.2638 23.1512 28.9195C23.401 28.5752 23.5349 28.1656 23.5349 27.7459C23.5349 27.3262 23.401 26.9166 23.1512 26.5723C22.9014 26.228 22.5477 25.9655 22.1379 25.8203C21.728 25.675 21.2816 25.6539 20.8589 25.7598C20.4361 25.8658 20.0573 26.0936 19.7736 26.4127C19.5405 26.1515 19.2427 25.9508 18.9076 25.8291C18.5726 25.7075 18.2111 25.6687 17.8564 25.7164C17.5017 25.7642 17.1652 25.8969 16.8779 26.1023C16.5905 26.3077 16.3616 26.5793 16.2122 26.892C16.0628 27.2047 15.9977 27.5485 16.0229 27.8917C16.048 28.2349 16.1627 28.5665 16.3563 28.856C16.5499 29.1455 16.8161 29.3835 17.1306 29.5482C17.4451 29.7129 17.7976 29.799 18.1558 29.7985Z" fill="#333333"/>
</svg>
