<svg width="28" height="33" viewBox="0 0 28 33" fill="none" xmlns="http://www.w3.org/2000/svg">
<path d="M23.9647 0.335938H4.03461C2.01072 0.335938 0.363281 1.98633 0.363281 4.01385V29.2338C0.363281 31.2613 2.01072 32.9117 4.03461 32.9117H23.9647C25.9886 32.9117 27.636 31.2613 27.636 29.2338V4.01385C27.636 1.98633 25.9886 0.335938 23.9647 0.335938ZM23.9647 7.16634C25.2328 7.16634 26.2928 8.07324 26.5346 9.27313C25.8718 8.62124 24.965 8.21717 23.9647 8.21717H4.03461C3.03432 8.21717 2.1275 8.62124 1.46473 9.27313C1.70648 8.07324 2.76644 7.16634 4.03461 7.16634H7.18146V6.11551H4.03461C3.03432 6.11551 2.1275 6.51957 1.46473 7.17147C1.70648 5.97158 2.76644 5.06468 4.03461 5.06468H23.9647C25.2328 5.06468 26.2928 5.97158 26.5346 7.17147C25.8718 6.51957 24.965 6.11551 23.9647 6.11551H8.23041V7.16634H23.9647ZM23.9647 19.7763C25.2328 19.7763 26.2928 20.6832 26.5346 21.8831C25.8718 21.2312 24.965 20.8271 23.9647 20.8271H4.03461C3.03432 20.8271 2.1275 21.2312 1.46473 21.8831C1.70648 20.6832 2.76644 19.7763 4.03461 19.7763H20.2934V18.7255H4.03461C3.03432 18.7255 2.1275 19.1295 1.46473 19.7814C1.70648 18.5816 2.76644 17.6746 4.03461 17.6746H23.9647C25.2328 17.6746 26.2928 18.5816 26.5346 19.7814C25.8718 19.1295 24.965 18.7255 23.9647 18.7255H21.3423V19.7763H23.9647ZM26.5871 26.6619C25.9205 25.98 24.9911 25.5559 23.9647 25.5559H7.70594C6.54892 25.5559 5.60804 26.4984 5.60804 27.6575C5.60804 28.8166 6.54892 29.7592 7.70594 29.7592H24.4892V28.7084H7.70594C7.12743 28.7084 6.65699 28.2371 6.65699 27.6575C6.65699 27.078 7.12743 26.6067 7.70594 26.6067H23.9647C25.4106 26.6067 26.5871 27.7853 26.5871 29.2338C26.5871 30.6823 25.4106 31.8609 23.9647 31.8609H4.03461C2.58872 31.8609 1.41223 30.6823 1.41223 29.2338V24.505C1.41223 23.0566 2.58872 21.878 4.03461 21.878H23.9647C25.4106 21.878 26.5871 23.0566 26.5871 24.505V26.6619ZM26.5871 17.7329C25.9199 17.0494 24.9916 16.6238 23.9647 16.6238H4.03461C3.00768 16.6238 2.07935 17.0494 1.41223 17.7329V11.8951C1.41223 10.4466 2.58872 9.268 4.03461 9.268H23.9647C25.4106 9.268 26.5871 10.4466 26.5871 11.8951V17.7329ZM23.9647 4.01385H4.03461C3.00768 4.01385 2.07935 4.43946 1.41223 5.12291V4.01385C1.41223 2.56536 2.58872 1.38677 4.03461 1.38677H23.9647C25.4106 1.38677 26.5871 2.56536 26.5871 4.01385V5.12291C25.9199 4.43946 24.9916 4.01385 23.9647 4.01385Z" fill="#333333"/>
</svg>
