<svg width="40" height="40" viewBox="0 0 40 40" fill="none" xmlns="http://www.w3.org/2000/svg">
<rect width="40" height="40" fill="#C4C4C4" fill-opacity="0.01"/>
<path d="M30.1094 17.9656C29.7796 17.6879 26.8621 14.2731 25.2112 12.6857C25.2112 12.6857 25.2112 12.6857 25.2112 12.6704V5.31097C25.2095 4.43222 24.8801 3.59008 24.2953 2.96935C23.7105 2.34861 22.9181 2 22.0919 2L11.8951 2C11.128 2.00269 10.3931 2.32799 9.85075 2.90489C9.30836 3.4818 9.00253 4.26348 9 5.07934V22.3308C9.00169 23.2084 9.3302 24.0495 9.9136 24.67C10.497 25.2906 11.2878 25.64 12.1129 25.6418H15.831C15.8614 25.6414 15.8915 25.6344 15.9192 25.6211C15.947 25.6078 15.9719 25.5886 15.9923 25.5646C16.0128 25.5406 16.0283 25.5124 16.038 25.4817C16.0478 25.451 16.0514 25.4185 16.0488 25.3863L15.8886 23.9216C15.8823 23.8653 15.8565 23.8135 15.8162 23.7764C15.776 23.7392 15.7241 23.7193 15.6709 23.7206H15.2257C15.1681 23.7201 15.1129 23.6956 15.0722 23.6522C15.0314 23.6089 15.0084 23.5502 15.0079 23.489V3.89052C15.0084 3.82923 15.0314 3.77057 15.0722 3.72723C15.1129 3.68388 15.1681 3.65934 15.2257 3.65889H22.1111C22.4462 3.66024 22.7673 3.80243 23.0042 4.05447C23.2412 4.30651 23.3749 4.64796 23.3761 5.0044V22.5914C23.3743 22.8345 23.2988 23.0704 23.1609 23.2643C23.0231 23.4582 22.8301 23.5997 22.6107 23.6678H22.5963C21.8453 23.2352 20.9598 21.3804 20.8253 21.0892C20.8126 21.0664 20.8054 21.0407 20.8045 21.0142C20.7549 20.5442 20.2569 15.9848 17.9735 15.9848C17.91 15.9814 17.8464 15.9814 17.7829 15.9848C17.7829 15.9848 15.9559 16.1551 17.4627 21.6887C17.4627 21.7023 17.4627 21.7108 17.4627 21.7245L18.1304 27.8559C18.128 27.866 18.128 27.8765 18.1304 27.8866C18.1864 28.1182 18.9454 31.2503 20.907 33.4696C20.9429 33.5128 20.9628 33.5685 20.963 33.6262V34.1576C20.963 34.173 20.963 34.1798 20.9422 34.1798H20.7661C20.5594 34.1802 20.3613 34.2678 20.2151 34.4232C20.069 34.5787 19.9867 34.7894 19.9863 35.0092V37.1689C19.9867 37.3889 20.0689 37.5997 20.215 37.7555C20.3611 37.9112 20.5592 37.9991 20.7661 38H29.0478C29.2546 37.9991 29.4527 37.9112 29.5988 37.7555C29.7449 37.5997 29.8272 37.3889 29.8276 37.1689V35.0416C29.8272 34.8217 29.7449 34.611 29.5987 34.4556C29.4526 34.3001 29.2545 34.2126 29.0478 34.2121C29.045 34.2124 29.0422 34.212 29.0395 34.211C29.0369 34.21 29.0345 34.2083 29.0325 34.2062C29.0306 34.2041 29.029 34.2016 29.0281 34.1988C29.0271 34.196 29.0267 34.193 29.027 34.19C29.3008 31.4837 30.2856 22.2303 30.8124 21.5048C30.8273 21.4822 30.8391 21.4576 30.8476 21.4315C30.9373 21.0892 31.3952 19.0317 30.1094 17.9656ZM12.2538 23.5043C12.2538 23.5317 12.2487 23.5589 12.2387 23.5842C12.2288 23.6095 12.2143 23.6325 12.196 23.6518C12.1777 23.6711 12.1559 23.6864 12.1321 23.6967C12.1082 23.7071 12.0826 23.7123 12.0568 23.7121C11.7254 23.7112 11.4078 23.5707 11.1734 23.3215C10.9391 23.0722 10.8071 22.7344 10.8062 22.3819V4.98907C10.8071 4.63656 10.9391 4.29875 11.1734 4.04949C11.4078 3.80022 11.7254 3.65979 12.0568 3.65889C12.0831 3.65888 12.1091 3.66447 12.1333 3.67531C12.1575 3.68616 12.1794 3.70205 12.1978 3.72205C12.2162 3.74204 12.2306 3.76574 12.2402 3.79175C12.2498 3.81776 12.2544 3.84555 12.2538 3.87349V23.5043Z" fill="#333333"/>
</svg>
