<svg width="40" height="40" viewBox="0 0 40 40" fill="none" xmlns="http://www.w3.org/2000/svg">
<rect width="40" height="40" fill="#C4C4C4" fill-opacity="0.01"/>
<path d="M36.9509 16.848C36.7673 15.7461 35.8618 15.0919 34.5549 15.0699C34.1534 15.0699 33.752 15.1051 33.359 15.0699C32.586 14.9909 32.3853 15.2543 32.3895 15.8822C32.428 18.9554 32.4151 22.0506 32.3895 25.1283C32.3895 26.7439 30.8477 28.4035 29.0069 28.8206C23.2881 30.1114 17.5735 31.4241 11.8504 32.7017C11.2007 32.846 10.5376 32.9167 9.87295 32.9124C9.71642 32.9022 9.56383 32.8577 9.42536 32.782C9.28689 32.7063 9.16575 32.6011 9.07002 32.4734C8.98887 32.3285 9.24085 31.9773 9.43731 31.7973C9.71849 31.5738 10.0349 31.4015 10.3727 31.288C11.419 30.9016 12.4868 30.5548 13.546 30.1904C17.7956 28.7372 22.0495 27.3059 26.2906 25.8439C28.1997 25.181 29.2333 23.8683 29.2803 22.2131C29.3742 16.8524 29.3272 11.4918 29.3059 6.12674C29.3113 5.68986 29.1755 5.26349 28.9196 4.91462C28.6637 4.56575 28.3023 4.31416 27.8922 4.19937C26.7604 3.76033 25.7567 4.11595 24.7787 4.5945C18.7708 7.54483 12.7601 10.4893 6.74661 13.4279C4.97842 14.306 3.99182 15.5529 4.00037 17.3398C4.00037 22.4063 4.00037 27.4684 4.00037 32.5349C3.99601 32.7891 4.0306 33.0424 4.10286 33.2856C4.69653 35.0066 6.23835 35.9945 8.35248 35.9945C12.5807 35.9945 16.8261 35.9945 21.0586 35.9945C25.2912 35.9945 29.4767 35.9945 33.6964 35.9945C34.5742 36.0431 35.4401 35.7692 36.1394 35.2218C37.0278 34.4842 36.9936 33.549 36.9936 32.6183C36.9936 27.6791 36.9936 22.7487 36.9936 17.8008C37.0097 17.4825 36.9954 17.1634 36.9509 16.848ZM19.3673 15.2675C19.7944 14.1304 20.7212 13.4192 22.1392 13.2348C22.5628 13.1601 22.998 13.2589 23.3517 13.51C23.7053 13.7611 23.9492 14.1445 24.0312 14.5782C24.232 15.8953 22.6047 17.4759 20.9946 17.4715C19.6492 17.4715 18.9018 16.5012 19.3673 15.2675Z" fill="#333333"/>
</svg>
